<svg width="557" height="192" viewBox="0 0 557 192" fill="none" xmlns="http://www.w3.org/2000/svg">
<g filter="url(#filter0_f_644_385)">
<path d="M24.48 142.024C19.5307 142.024 15.5627 140.701 12.576 138.056C9.58933 135.411 8.096 132.083 8.096 128.072C8.096 123.976 9.58933 120.605 12.576 117.96C15.5627 115.229 19.5307 113.864 24.48 113.864C29.344 113.864 33.2693 115.229 36.256 117.96C39.2427 120.605 40.736 123.976 40.736 128.072C40.736 132.083 39.2427 135.411 36.256 138.056C33.2693 140.701 29.344 142.024 24.48 142.024ZM47.435 104.904C47.435 97.3093 48.715 90.7387 51.275 85.192C53.9203 79.56 57.5043 75.2933 62.027 72.392C66.5497 69.4053 71.627 67.912 77.259 67.912C81.9523 67.912 85.963 68.8933 89.291 70.856C92.7043 72.7333 95.307 75.336 97.099 78.664V46.28H125.515V141H97.099V131.144C95.307 134.472 92.7043 137.117 89.291 139.08C85.963 140.957 81.9523 141.896 77.259 141.896C71.627 141.896 66.5497 140.445 62.027 137.544C57.5043 134.557 53.9203 130.291 51.275 124.744C48.715 119.112 47.435 112.499 47.435 104.904ZM97.227 104.904C97.227 101.064 96.2457 98.0773 94.283 95.944C92.3203 93.8107 89.803 92.744 86.731 92.744C83.659 92.744 81.1417 93.8107 79.179 95.944C77.2163 98.0773 76.235 101.064 76.235 104.904C76.235 108.744 77.2163 111.731 79.179 113.864C81.1417 115.997 83.659 117.064 86.731 117.064C89.803 117.064 92.3203 115.997 94.283 113.864C96.2457 111.731 97.227 108.744 97.227 104.904ZM172.579 141.896C165.326 141.896 158.798 140.403 152.995 137.416C147.192 134.429 142.627 130.163 139.299 124.616C136.056 118.984 134.435 112.413 134.435 104.904C134.435 97.3947 136.056 90.8667 139.299 85.32C142.627 79.688 147.192 75.3787 152.995 72.392C158.798 69.4053 165.326 67.912 172.579 67.912C179.832 67.912 186.36 69.4053 192.163 72.392C197.966 75.3787 202.488 79.688 205.731 85.32C209.059 90.8667 210.723 97.3947 210.723 104.904C210.723 112.413 209.059 118.984 205.731 124.616C202.488 130.163 197.966 134.429 192.163 137.416C186.36 140.403 179.832 141.896 172.579 141.896ZM172.579 117.32C175.224 117.32 177.443 116.296 179.235 114.248C181.027 112.115 181.923 109 181.923 104.904C181.923 100.808 181.027 97.736 179.235 95.688C177.443 93.5547 175.224 92.488 172.579 92.488C169.934 92.488 167.715 93.5547 165.923 95.688C164.131 97.736 163.235 100.808 163.235 104.904C163.235 109 164.088 112.115 165.795 114.248C167.587 116.296 169.848 117.32 172.579 117.32ZM264.578 116.808V141H253.826C234.029 141 224.13 131.144 224.13 111.432V92.488H215.17V68.808H224.13V51.4H252.546V68.808H264.322V92.488H252.546V111.944C252.546 113.651 252.93 114.888 253.698 115.656C254.551 116.424 255.917 116.808 257.794 116.808H264.578ZM317 63.688C315.464 63.5173 314.397 63.432 313.8 63.432C311.667 63.432 310.045 63.8587 308.936 64.712C307.827 65.48 307.059 66.8453 306.632 68.808H317V92.488H306.376V141H277.96V92.488H270.28V68.808H277.96C278.131 59.4213 281.075 52.168 286.792 47.048C292.595 41.8427 300.701 39.24 311.112 39.24C312.307 39.24 314.269 39.3253 317 39.496V63.688ZM338.986 63.048C334.037 63.048 330.069 61.7253 327.082 59.08C324.095 56.4347 322.602 53.1067 322.602 49.096C322.602 45 324.095 41.6293 327.082 38.984C330.069 36.2533 334.037 34.888 338.986 34.888C343.85 34.888 347.775 36.2533 350.762 38.984C353.749 41.6293 355.242 45 355.242 49.096C355.242 53.1067 353.749 56.4347 350.762 59.08C347.775 61.7253 343.85 63.048 338.986 63.048ZM353.066 68.808V141H324.65V68.808H353.066ZM394.316 46.28V141H365.9V46.28H394.316ZM477.038 104.264C477.038 106.227 476.91 108.104 476.654 109.896H430.958C431.385 116.125 433.987 119.24 438.766 119.24C441.838 119.24 444.057 117.832 445.422 115.016H475.502C474.478 120.136 472.302 124.744 468.974 128.84C465.731 132.851 461.593 136.051 456.558 138.44C451.609 140.744 446.147 141.896 440.174 141.896C433.006 141.896 426.606 140.403 420.974 137.416C415.427 134.429 411.075 130.163 407.918 124.616C404.846 118.984 403.31 112.413 403.31 104.904C403.31 97.3947 404.846 90.8667 407.918 85.32C411.075 79.688 415.427 75.3787 420.974 72.392C426.606 69.4053 433.006 67.912 440.174 67.912C447.342 67.912 453.699 69.4053 459.246 72.392C464.878 75.2933 469.23 79.4747 472.302 84.936C475.459 90.3973 477.038 96.84 477.038 104.264ZM448.238 97.48C448.238 95.0907 447.47 93.2987 445.934 92.104C444.398 90.824 442.478 90.184 440.174 90.184C435.139 90.184 432.195 92.616 431.342 97.48H448.238ZM518.153 141.896C511.326 141.896 505.268 140.787 499.977 138.568C494.772 136.349 490.633 133.277 487.561 129.352C484.489 125.427 482.74 120.989 482.313 116.04H509.577C509.918 118.173 510.814 119.752 512.265 120.776C513.801 121.8 515.721 122.312 518.025 122.312C519.476 122.312 520.628 122.013 521.481 121.416C522.334 120.733 522.761 119.923 522.761 118.984C522.761 117.363 521.865 116.211 520.073 115.528C518.281 114.845 515.252 114.077 510.985 113.224C505.78 112.2 501.47 111.091 498.057 109.896C494.729 108.701 491.785 106.653 489.225 103.752C486.75 100.851 485.513 96.84 485.513 91.72C485.513 87.2827 486.665 83.272 488.969 79.688C491.358 76.0187 494.857 73.16 499.465 71.112C504.073 68.9787 509.662 67.912 516.233 67.912C525.961 67.912 533.556 70.3013 539.017 75.08C544.564 79.8587 547.892 86.088 549.001 93.768H523.785C523.358 91.8053 522.462 90.312 521.097 89.288C519.732 88.1787 517.897 87.624 515.593 87.624C514.142 87.624 513.033 87.9227 512.265 88.52C511.497 89.032 511.113 89.8427 511.113 90.952C511.113 92.4027 512.009 93.512 513.801 94.28C515.593 94.9627 518.452 95.688 522.377 96.456C527.582 97.48 531.977 98.632 535.561 99.912C539.145 101.192 542.26 103.411 544.905 106.568C547.55 109.64 548.873 113.907 548.873 119.368C548.873 123.635 547.636 127.475 545.161 130.888C542.686 134.301 539.102 136.989 534.409 138.952C529.801 140.915 524.382 141.896 518.153 141.896Z" fill="url(#paint0_linear_644_385)" style="mix-blend-mode:darken"/>
</g>
<path d="M24.48 142.024C19.5307 142.024 15.5627 140.701 12.576 138.056C9.58933 135.411 8.096 132.083 8.096 128.072C8.096 123.976 9.58933 120.605 12.576 117.96C15.5627 115.229 19.5307 113.864 24.48 113.864C29.344 113.864 33.2693 115.229 36.256 117.96C39.2427 120.605 40.736 123.976 40.736 128.072C40.736 132.083 39.2427 135.411 36.256 138.056C33.2693 140.701 29.344 142.024 24.48 142.024ZM47.435 104.904C47.435 97.3093 48.715 90.7387 51.275 85.192C53.9203 79.56 57.5043 75.2933 62.027 72.392C66.5497 69.4053 71.627 67.912 77.259 67.912C81.9523 67.912 85.963 68.8933 89.291 70.856C92.7043 72.7333 95.307 75.336 97.099 78.664V46.28H125.515V141H97.099V131.144C95.307 134.472 92.7043 137.117 89.291 139.08C85.963 140.957 81.9523 141.896 77.259 141.896C71.627 141.896 66.5497 140.445 62.027 137.544C57.5043 134.557 53.9203 130.291 51.275 124.744C48.715 119.112 47.435 112.499 47.435 104.904ZM97.227 104.904C97.227 101.064 96.2457 98.0773 94.283 95.944C92.3203 93.8107 89.803 92.744 86.731 92.744C83.659 92.744 81.1417 93.8107 79.179 95.944C77.2163 98.0773 76.235 101.064 76.235 104.904C76.235 108.744 77.2163 111.731 79.179 113.864C81.1417 115.997 83.659 117.064 86.731 117.064C89.803 117.064 92.3203 115.997 94.283 113.864C96.2457 111.731 97.227 108.744 97.227 104.904ZM172.579 141.896C165.326 141.896 158.798 140.403 152.995 137.416C147.192 134.429 142.627 130.163 139.299 124.616C136.056 118.984 134.435 112.413 134.435 104.904C134.435 97.3947 136.056 90.8667 139.299 85.32C142.627 79.688 147.192 75.3787 152.995 72.392C158.798 69.4053 165.326 67.912 172.579 67.912C179.832 67.912 186.36 69.4053 192.163 72.392C197.966 75.3787 202.488 79.688 205.731 85.32C209.059 90.8667 210.723 97.3947 210.723 104.904C210.723 112.413 209.059 118.984 205.731 124.616C202.488 130.163 197.966 134.429 192.163 137.416C186.36 140.403 179.832 141.896 172.579 141.896ZM172.579 117.32C175.224 117.32 177.443 116.296 179.235 114.248C181.027 112.115 181.923 109 181.923 104.904C181.923 100.808 181.027 97.736 179.235 95.688C177.443 93.5547 175.224 92.488 172.579 92.488C169.934 92.488 167.715 93.5547 165.923 95.688C164.131 97.736 163.235 100.808 163.235 104.904C163.235 109 164.088 112.115 165.795 114.248C167.587 116.296 169.848 117.32 172.579 117.32ZM264.578 116.808V141H253.826C234.029 141 224.13 131.144 224.13 111.432V92.488H215.17V68.808H224.13V51.4H252.546V68.808H264.322V92.488H252.546V111.944C252.546 113.651 252.93 114.888 253.698 115.656C254.551 116.424 255.917 116.808 257.794 116.808H264.578ZM317 63.688C315.464 63.5173 314.397 63.432 313.8 63.432C311.667 63.432 310.045 63.8587 308.936 64.712C307.827 65.48 307.059 66.8453 306.632 68.808H317V92.488H306.376V141H277.96V92.488H270.28V68.808H277.96C278.131 59.4213 281.075 52.168 286.792 47.048C292.595 41.8427 300.701 39.24 311.112 39.24C312.307 39.24 314.269 39.3253 317 39.496V63.688ZM338.986 63.048C334.037 63.048 330.069 61.7253 327.082 59.08C324.095 56.4347 322.602 53.1067 322.602 49.096C322.602 45 324.095 41.6293 327.082 38.984C330.069 36.2533 334.037 34.888 338.986 34.888C343.85 34.888 347.775 36.2533 350.762 38.984C353.749 41.6293 355.242 45 355.242 49.096C355.242 53.1067 353.749 56.4347 350.762 59.08C347.775 61.7253 343.85 63.048 338.986 63.048ZM353.066 68.808V141H324.65V68.808H353.066ZM394.316 46.28V141H365.9V46.28H394.316ZM477.038 104.264C477.038 106.227 476.91 108.104 476.654 109.896H430.958C431.385 116.125 433.987 119.24 438.766 119.24C441.838 119.24 444.057 117.832 445.422 115.016H475.502C474.478 120.136 472.302 124.744 468.974 128.84C465.731 132.851 461.593 136.051 456.558 138.44C451.609 140.744 446.147 141.896 440.174 141.896C433.006 141.896 426.606 140.403 420.974 137.416C415.427 134.429 411.075 130.163 407.918 124.616C404.846 118.984 403.31 112.413 403.31 104.904C403.31 97.3947 404.846 90.8667 407.918 85.32C411.075 79.688 415.427 75.3787 420.974 72.392C426.606 69.4053 433.006 67.912 440.174 67.912C447.342 67.912 453.699 69.4053 459.246 72.392C464.878 75.2933 469.23 79.4747 472.302 84.936C475.459 90.3973 477.038 96.84 477.038 104.264ZM448.238 97.48C448.238 95.0907 447.47 93.2987 445.934 92.104C444.398 90.824 442.478 90.184 440.174 90.184C435.139 90.184 432.195 92.616 431.342 97.48H448.238ZM518.153 141.896C511.326 141.896 505.268 140.787 499.977 138.568C494.772 136.349 490.633 133.277 487.561 129.352C484.489 125.427 482.74 120.989 482.313 116.04H509.577C509.918 118.173 510.814 119.752 512.265 120.776C513.801 121.8 515.721 122.312 518.025 122.312C519.476 122.312 520.628 122.013 521.481 121.416C522.334 120.733 522.761 119.923 522.761 118.984C522.761 117.363 521.865 116.211 520.073 115.528C518.281 114.845 515.252 114.077 510.985 113.224C505.78 112.2 501.47 111.091 498.057 109.896C494.729 108.701 491.785 106.653 489.225 103.752C486.75 100.851 485.513 96.84 485.513 91.72C485.513 87.2827 486.665 83.272 488.969 79.688C491.358 76.0187 494.857 73.16 499.465 71.112C504.073 68.9787 509.662 67.912 516.233 67.912C525.961 67.912 533.556 70.3013 539.017 75.08C544.564 79.8587 547.892 86.088 549.001 93.768H523.785C523.358 91.8053 522.462 90.312 521.097 89.288C519.732 88.1787 517.897 87.624 515.593 87.624C514.142 87.624 513.033 87.9227 512.265 88.52C511.497 89.032 511.113 89.8427 511.113 90.952C511.113 92.4027 512.009 93.512 513.801 94.28C515.593 94.9627 518.452 95.688 522.377 96.456C527.582 97.48 531.977 98.632 535.561 99.912C539.145 101.192 542.26 103.411 544.905 106.568C547.55 109.64 548.873 113.907 548.873 119.368C548.873 123.635 547.636 127.475 545.161 130.888C542.686 134.301 539.102 136.989 534.409 138.952C529.801 140.915 524.382 141.896 518.153 141.896Z" fill="url(#paint1_linear_644_385)"/>
<path d="M12.576 138.056L11.913 138.805L12.576 138.056ZM12.576 117.96L13.239 118.709L13.2449 118.703L13.2508 118.698L12.576 117.96ZM36.256 117.96L35.5812 118.698L35.5871 118.703L35.593 118.709L36.256 117.96ZM36.256 138.056L35.593 137.307L35.593 137.307L36.256 138.056ZM24.48 141.024C19.7139 141.024 16.0017 139.754 13.239 137.307L11.913 138.805C15.1236 141.648 19.3475 143.024 24.48 143.024V141.024ZM13.239 137.307C10.4679 134.853 9.096 131.798 9.096 128.072H7.096C7.096 132.367 8.71072 135.968 11.913 138.805L13.239 137.307ZM9.096 128.072C9.096 124.254 10.4731 121.158 13.239 118.709L11.913 117.211C8.70558 120.052 7.096 123.698 7.096 128.072H9.096ZM13.2508 118.698C16.0141 116.172 19.722 114.864 24.48 114.864V112.864C19.3394 112.864 15.1112 114.287 11.9012 117.222L13.2508 118.698ZM24.48 114.864C29.1475 114.864 32.8147 116.169 35.5812 118.698L36.9308 117.222C33.7239 114.29 29.5405 112.864 24.48 112.864V114.864ZM35.593 118.709C38.3589 121.158 39.736 124.254 39.736 128.072H41.736C41.736 123.698 40.1264 120.052 36.919 117.211L35.593 118.709ZM39.736 128.072C39.736 131.798 38.3641 134.853 35.593 137.307L36.919 138.805C40.1213 135.968 41.736 132.367 41.736 128.072H39.736ZM35.593 137.307C32.8271 139.757 29.1557 141.024 24.48 141.024V143.024C29.5323 143.024 33.7115 141.646 36.919 138.805L35.593 137.307ZM51.275 85.192L50.3699 84.7669L50.367 84.7729L51.275 85.192ZM62.027 72.392L62.567 73.2338L62.5781 73.2265L62.027 72.392ZM89.291 70.856L88.783 71.7174L88.7959 71.725L88.8091 71.7322L89.291 70.856ZM97.099 78.664L96.2185 79.1381L98.099 78.664H97.099ZM97.099 46.28V45.28H96.099V46.28H97.099ZM125.515 46.28H126.515V45.28H125.515V46.28ZM125.515 141V142H126.515V141H125.515ZM97.099 141H96.099V142H97.099V141ZM97.099 131.144H98.099L96.2185 130.67L97.099 131.144ZM89.291 139.08L89.7823 139.951L89.7895 139.947L89.291 139.08ZM62.027 137.544L61.4759 138.379L61.487 138.386L62.027 137.544ZM51.275 124.744L50.3646 125.158L50.3684 125.166L50.3724 125.174L51.275 124.744ZM94.283 95.944L95.0189 95.2669L95.0189 95.2669L94.283 95.944ZM79.179 95.944L78.4431 95.2669L78.4431 95.2669L79.179 95.944ZM48.435 104.904C48.435 97.4198 49.6965 90.9984 52.183 85.6111L50.367 84.7729C47.7335 90.4789 46.435 97.1989 46.435 104.904H48.435ZM52.1801 85.6171C54.7583 80.1281 58.2266 76.0181 62.567 73.2337L61.487 71.5503C56.7821 74.5686 53.0824 78.9919 50.3699 84.7669L52.1801 85.6171ZM62.5781 73.2265C66.9306 70.3521 71.8148 68.912 77.259 68.912V66.912C71.4392 66.912 66.1687 68.4585 61.4759 71.5575L62.5781 73.2265ZM77.259 68.912C81.812 68.912 85.6389 69.8631 88.783 71.7174L89.799 69.9946C86.2871 67.9235 82.0927 66.912 77.259 66.912V68.912ZM88.8091 71.7322C92.0591 73.5197 94.5208 75.9851 96.2185 79.1381L97.9795 78.1899C96.0932 74.6869 93.3496 71.947 89.7729 69.9798L88.8091 71.7322ZM98.099 78.664V46.28H96.099V78.664H98.099ZM97.099 47.28H125.515V45.28H97.099V47.28ZM124.515 46.28V141H126.515V46.28H124.515ZM125.515 140H97.099V142H125.515V140ZM98.099 141V131.144H96.099V141H98.099ZM96.2185 130.67C94.5186 133.827 92.0515 136.339 88.7925 138.213L89.7895 139.947C93.3572 137.895 96.0954 135.117 97.9795 131.618L96.2185 130.67ZM88.7997 138.209C85.6523 139.984 81.8192 140.896 77.259 140.896V142.896C82.0855 142.896 86.2737 141.93 89.7823 139.951L88.7997 138.209ZM77.259 140.896C71.8087 140.896 66.9205 139.495 62.567 136.702L61.487 138.386C66.1788 141.395 71.4453 142.896 77.259 142.896V140.896ZM62.5781 136.71C58.2266 133.836 54.7554 129.719 52.1776 124.314L50.3724 125.174C53.0853 130.863 56.782 135.279 61.4759 138.378L62.5781 136.71ZM52.1854 124.33C49.6963 118.854 48.435 112.388 48.435 104.904H46.435C46.435 112.61 47.7337 119.37 50.3646 125.158L52.1854 124.33ZM98.227 104.904C98.227 100.896 97.2004 97.6381 95.0189 95.2669L93.5471 96.6211C95.2909 98.5165 96.227 101.232 96.227 104.904H98.227ZM95.0189 95.2669C92.8545 92.9143 90.0639 91.744 86.731 91.744V93.744C89.5421 93.744 91.7861 94.707 93.5471 96.6211L95.0189 95.2669ZM86.731 91.744C83.3981 91.744 80.6075 92.9143 78.4431 95.2669L79.9149 96.6211C81.6759 94.707 83.9199 93.744 86.731 93.744V91.744ZM78.4431 95.2669C76.2616 97.6381 75.235 100.896 75.235 104.904H77.235C77.235 101.232 78.1711 98.5165 79.9149 96.6211L78.4431 95.2669ZM75.235 104.904C75.235 108.912 76.2616 112.17 78.4431 114.541L79.9149 113.187C78.1711 111.291 77.235 108.576 77.235 104.904H75.235ZM78.4431 114.541C80.6075 116.894 83.3981 118.064 86.731 118.064V116.064C83.9199 116.064 81.6759 115.101 79.9149 113.187L78.4431 114.541ZM86.731 118.064C90.0639 118.064 92.8545 116.894 95.0189 114.541L93.5471 113.187C91.7861 115.101 89.5421 116.064 86.731 116.064V118.064ZM95.0189 114.541C97.2004 112.17 98.227 108.912 98.227 104.904H96.227C96.227 108.576 95.2909 111.291 93.5471 113.187L95.0189 114.541ZM152.995 137.416L153.453 136.527L152.995 137.416ZM139.299 124.616L138.432 125.115L138.437 125.123L138.442 125.13L139.299 124.616ZM139.299 85.32L138.438 84.8113L138.436 84.8153L139.299 85.32ZM152.995 72.392L153.453 73.2811L153.453 73.2811L152.995 72.392ZM192.163 72.392L191.705 73.2811L191.705 73.2811L192.163 72.392ZM205.731 85.32L204.864 85.819L204.869 85.8268L204.874 85.8345L205.731 85.32ZM205.731 124.616L204.87 124.107L204.868 124.111L205.731 124.616ZM192.163 137.416L191.705 136.527L191.705 136.527L192.163 137.416ZM179.235 114.248L179.988 114.907L179.994 114.899L180.001 114.891L179.235 114.248ZM179.235 95.688L178.469 96.3312L178.476 96.3389L178.482 96.3465L179.235 95.688ZM165.923 95.688L166.676 96.3465L166.682 96.3389L166.689 96.3312L165.923 95.688ZM165.795 114.248L165.014 114.873L165.028 114.89L165.042 114.907L165.795 114.248ZM172.579 140.896C165.467 140.896 159.099 139.433 153.453 136.527L152.537 138.305C158.497 141.372 165.184 142.896 172.579 142.896V140.896ZM153.453 136.527C147.814 133.625 143.388 129.487 140.156 124.102L138.442 125.13C141.866 130.838 146.571 135.234 152.537 138.305L153.453 136.527ZM140.166 124.117C137.023 118.659 135.435 112.266 135.435 104.904H133.435C133.435 112.561 135.09 119.309 138.432 125.115L140.166 124.117ZM135.435 104.904C135.435 97.5418 137.023 91.1941 140.162 85.8247L138.436 84.8153C135.089 90.5393 133.435 97.2475 133.435 104.904H135.435ZM140.16 85.8287C143.392 80.3586 147.818 76.1813 153.453 73.2811L152.537 71.5029C146.567 74.576 141.862 79.0174 138.438 84.8113L140.16 85.8287ZM153.453 73.2811C159.099 70.3751 165.467 68.912 172.579 68.912V66.912C165.184 66.912 158.497 68.4355 152.537 71.5029L153.453 73.2811ZM172.579 68.912C179.691 68.912 186.059 70.3751 191.705 73.2811L192.621 71.5029C186.661 68.4355 179.974 66.912 172.579 66.912V68.912ZM191.705 73.2811C197.338 76.1802 201.718 80.3544 204.864 85.819L206.598 84.821C203.259 79.0216 198.594 74.5772 192.621 71.5029L191.705 73.2811ZM204.874 85.8345C208.094 91.2022 209.723 97.5463 209.723 104.904H211.723C211.723 97.243 210.024 90.5311 206.588 84.8055L204.874 85.8345ZM209.723 104.904C209.723 112.261 208.094 118.651 204.87 124.107L206.592 125.125C210.024 119.317 211.723 112.565 211.723 104.904H209.723ZM204.868 124.111C201.723 129.491 197.342 133.626 191.705 136.527L192.621 138.305C198.59 135.233 203.254 130.834 206.594 125.121L204.868 124.111ZM191.705 136.527C186.059 139.433 179.691 140.896 172.579 140.896V142.896C179.974 142.896 186.661 141.372 192.621 138.305L191.705 136.527ZM172.579 118.32C175.522 118.32 178.012 117.164 179.988 114.907L178.482 113.589C176.874 115.428 174.927 116.32 172.579 116.32V118.32ZM180.001 114.891C182.001 112.51 182.923 109.128 182.923 104.904H180.923C180.923 108.872 180.053 111.72 178.469 113.605L180.001 114.891ZM182.923 104.904C182.923 100.684 182.003 97.3326 179.988 95.0295L178.482 96.3465C180.051 98.1394 180.923 100.932 180.923 104.904H182.923ZM180.001 95.0448C178.03 92.6991 175.537 91.488 172.579 91.488V93.488C174.911 93.488 176.856 94.4103 178.469 96.3312L180.001 95.0448ZM172.579 91.488C169.621 91.488 167.128 92.6991 165.157 95.0448L166.689 96.3312C168.302 94.4103 170.247 93.488 172.579 93.488V91.488ZM165.17 95.0295C163.155 97.3326 162.235 100.684 162.235 104.904H164.235C164.235 100.932 165.107 98.1394 166.676 96.3465L165.17 95.0295ZM162.235 104.904C162.235 109.118 163.11 112.493 165.014 114.873L166.576 113.623C165.067 111.737 164.235 108.882 164.235 104.904H162.235ZM165.042 114.907C167.025 117.172 169.561 118.32 172.579 118.32V116.32C170.136 116.32 168.149 115.42 166.548 113.589L165.042 114.907ZM264.578 116.808H265.578V115.808H264.578V116.808ZM264.578 141V142H265.578V141H264.578ZM224.13 92.488H225.13V91.488H224.13V92.488ZM215.17 92.488H214.17V93.488H215.17V92.488ZM215.17 68.808V67.808H214.17V68.808H215.17ZM224.13 68.808V69.808H225.13V68.808H224.13ZM224.13 51.4V50.4H223.13V51.4H224.13ZM252.546 51.4H253.546V50.4H252.546V51.4ZM252.546 68.808H251.546V69.808H252.546V68.808ZM264.322 68.808H265.322V67.808H264.322V68.808ZM264.322 92.488V93.488H265.322V92.488H264.322ZM252.546 92.488V91.488H251.546V92.488H252.546ZM253.698 115.656L252.991 116.363L253.009 116.382L253.029 116.399L253.698 115.656ZM263.578 116.808V141H265.578V116.808H263.578ZM264.578 140H253.826V142H264.578V140ZM253.826 140C244.08 140 236.955 137.575 232.26 132.899C227.565 128.225 225.13 121.133 225.13 111.432H223.13C223.13 121.443 225.644 129.135 230.848 134.317C236.052 139.497 243.774 142 253.826 142V140ZM225.13 111.432V92.488H223.13V111.432H225.13ZM224.13 91.488H215.17V93.488H224.13V91.488ZM216.17 92.488V68.808H214.17V92.488H216.17ZM215.17 69.808H224.13V67.808H215.17V69.808ZM225.13 68.808V51.4H223.13V68.808H225.13ZM224.13 52.4H252.546V50.4H224.13V52.4ZM251.546 51.4V68.808H253.546V51.4H251.546ZM252.546 69.808H264.322V67.808H252.546V69.808ZM263.322 68.808V92.488H265.322V68.808H263.322ZM264.322 91.488H252.546V93.488H264.322V91.488ZM251.546 92.488V111.944H253.546V92.488H251.546ZM251.546 111.944C251.546 113.769 251.952 115.324 252.991 116.363L254.405 114.949C253.908 114.452 253.546 113.532 253.546 111.944H251.546ZM253.029 116.399C254.152 117.41 255.817 117.808 257.794 117.808V115.808C256.016 115.808 254.951 115.438 254.367 114.913L253.029 116.399ZM257.794 117.808H264.578V115.808H257.794V117.808ZM317 63.688L316.89 64.6819L318 64.8053V63.688H317ZM308.936 64.712L309.505 65.5342L309.526 65.5199L309.546 65.5046L308.936 64.712ZM306.632 68.808L305.655 68.5956L305.391 69.808H306.632V68.808ZM317 68.808H318V67.808H317V68.808ZM317 92.488V93.488H318V92.488H317ZM306.376 92.488V91.488H305.376V92.488H306.376ZM306.376 141V142H307.376V141H306.376ZM277.96 141H276.96V142H277.96V141ZM277.96 92.488H278.96V91.488H277.96V92.488ZM270.28 92.488H269.28V93.488H270.28V92.488ZM270.28 68.808V67.808H269.28V68.808H270.28ZM277.96 68.808V69.808H278.942L278.96 68.8262L277.96 68.808ZM286.792 47.048L287.459 47.7929L287.46 47.7924L286.792 47.048ZM317 39.496H318V38.5565L317.062 38.4979L317 39.496ZM317.11 62.6941C315.577 62.5238 314.46 62.432 313.8 62.432V64.432C314.335 64.432 315.351 64.5109 316.89 64.6819L317.11 62.6941ZM313.8 62.432C311.556 62.432 309.681 62.8773 308.326 63.9194L309.546 65.5046C310.41 64.84 311.778 64.432 313.8 64.432V62.432ZM308.367 63.8898C306.967 64.8588 306.11 66.504 305.655 68.5956L307.609 69.0204C308.008 67.1867 308.686 66.1012 309.505 65.5342L308.367 63.8898ZM306.632 69.808H317V67.808H306.632V69.808ZM316 68.808V92.488H318V68.808H316ZM317 91.488H306.376V93.488H317V91.488ZM305.376 92.488V141H307.376V92.488H305.376ZM306.376 140H277.96V142H306.376V140ZM278.96 141V92.488H276.96V141H278.96ZM277.96 91.488H270.28V93.488H277.96V91.488ZM271.28 92.488V68.808H269.28V92.488H271.28ZM270.28 69.808H277.96V67.808H270.28V69.808ZM278.96 68.8262C279.127 59.6507 281.994 52.6872 287.459 47.7929L286.125 46.303C280.155 51.6488 277.135 59.192 276.96 68.7898L278.96 68.8262ZM287.46 47.7924C293.025 42.8002 300.864 40.24 311.112 40.24V38.24C300.539 38.24 292.165 40.8851 286.124 46.3036L287.46 47.7924ZM311.112 40.24C312.273 40.24 314.208 40.3235 316.938 40.494L317.062 38.4979C314.33 38.3272 312.341 38.24 311.112 38.24V40.24ZM316 39.496V63.688H318V39.496H316ZM327.082 59.08L327.745 58.3314L327.745 58.3314L327.082 59.08ZM327.082 38.984L327.745 39.7326L327.751 39.7273L327.757 39.722L327.082 38.984ZM350.762 38.984L350.087 39.722L350.093 39.7273L350.099 39.7326L350.762 38.984ZM350.762 59.08L350.099 58.3314L350.099 58.3314L350.762 59.08ZM353.066 68.808H354.066V67.808H353.066V68.808ZM353.066 141V142H354.066V141H353.066ZM324.65 141H323.65V142H324.65V141ZM324.65 68.808V67.808H323.65V68.808H324.65ZM338.986 62.048C334.22 62.048 330.508 60.7784 327.745 58.3314L326.419 59.8286C329.63 62.6723 333.853 64.048 338.986 64.048V62.048ZM327.745 58.3314C324.974 55.877 323.602 52.8221 323.602 49.096H321.602C321.602 53.3912 323.217 56.9923 326.419 59.8286L327.745 58.3314ZM323.602 49.096C323.602 45.2775 324.979 42.1824 327.745 39.7326L326.419 38.2354C323.212 41.0762 321.602 44.7224 321.602 49.096H323.602ZM327.757 39.722C330.52 37.1956 334.228 35.888 338.986 35.888V33.888C333.845 33.888 329.617 35.3111 326.407 38.246L327.757 39.722ZM338.986 35.888C343.653 35.888 347.321 37.1926 350.087 39.722L351.437 38.246C348.23 35.314 344.047 33.888 338.986 33.888V35.888ZM350.099 39.7326C352.865 42.1824 354.242 45.2775 354.242 49.096H356.242C356.242 44.7224 354.632 41.0762 351.425 38.2354L350.099 39.7326ZM354.242 49.096C354.242 52.8221 352.87 55.877 350.099 58.3314L351.425 59.8286C354.627 56.9923 356.242 53.3912 356.242 49.096H354.242ZM350.099 58.3314C347.333 60.7811 343.662 62.048 338.986 62.048V64.048C344.038 64.048 348.218 62.6695 351.425 59.8286L350.099 58.3314ZM352.066 68.808V141H354.066V68.808H352.066ZM353.066 140H324.65V142H353.066V140ZM325.65 141V68.808H323.65V141H325.65ZM324.65 69.808H353.066V67.808H324.65V69.808ZM394.316 46.28H395.316V45.28H394.316V46.28ZM394.316 141V142H395.316V141H394.316ZM365.9 141H364.9V142H365.9V141ZM365.9 46.28V45.28H364.9V46.28H365.9ZM393.316 46.28V141H395.316V46.28H393.316ZM394.316 140H365.9V142H394.316V140ZM366.9 141V46.28H364.9V141H366.9ZM365.9 47.28H394.316V45.28H365.9V47.28ZM476.654 109.896V110.896H477.521L477.644 110.037L476.654 109.896ZM430.958 109.896V108.896H429.887L429.96 109.964L430.958 109.896ZM445.422 115.016V114.016H444.796L444.522 114.58L445.422 115.016ZM475.502 115.016L476.483 115.212L476.722 114.016H475.502V115.016ZM468.974 128.84L468.198 128.209L468.196 128.211L468.974 128.84ZM456.558 138.44L456.98 139.347L456.987 139.343L456.558 138.44ZM420.974 137.416L420.5 138.296L420.505 138.299L420.974 137.416ZM407.918 124.616L407.04 125.095L407.044 125.103L407.049 125.111L407.918 124.616ZM407.918 85.32L407.046 84.831L407.043 84.8355L407.918 85.32ZM420.974 72.392L420.505 71.5085L420.5 71.5115L420.974 72.392ZM459.246 72.392L458.772 73.2725L458.78 73.2768L458.788 73.281L459.246 72.392ZM472.302 84.936L471.43 85.4263L471.436 85.4365L472.302 84.936ZM448.238 97.48V98.48H449.238V97.48H448.238ZM445.934 92.104L445.294 92.8722L445.307 92.883L445.32 92.8933L445.934 92.104ZM431.342 97.48L430.357 97.3072L430.151 98.48H431.342V97.48ZM476.038 104.264C476.038 106.183 475.913 108.013 475.664 109.755L477.644 110.037C477.907 108.195 478.038 106.27 478.038 104.264H476.038ZM476.654 108.896H430.958V110.896H476.654V108.896ZM429.96 109.964C430.181 113.183 430.971 115.76 432.463 117.545C433.988 119.371 436.139 120.24 438.766 120.24V118.24C436.615 118.24 435.074 117.552 433.997 116.263C432.886 114.933 432.162 112.838 431.956 109.828L429.96 109.964ZM438.766 120.24C440.459 120.24 441.975 119.85 443.27 119.028C444.564 118.207 445.574 116.995 446.322 115.452L444.522 114.58C443.905 115.853 443.123 116.753 442.198 117.34C441.275 117.926 440.145 118.24 438.766 118.24V120.24ZM445.422 116.016H475.502V114.016H445.422V116.016ZM474.521 114.82C473.53 119.779 471.425 124.238 468.198 128.209L469.75 129.471C473.179 125.25 475.426 120.493 476.483 115.212L474.521 114.82ZM468.196 128.211C465.055 132.096 461.04 135.206 456.129 137.537L456.987 139.343C462.146 136.895 466.407 133.605 469.752 129.469L468.196 128.211ZM456.136 137.533C451.331 139.77 446.015 140.896 440.174 140.896V142.896C446.279 142.896 451.886 141.718 456.98 139.347L456.136 137.533ZM440.174 140.896C433.149 140.896 426.913 139.434 421.443 136.533L420.505 138.299C426.299 141.372 432.863 142.896 440.174 142.896V140.896ZM421.448 136.536C416.069 133.639 411.853 129.507 408.787 124.121L407.049 125.111C410.298 130.818 414.786 135.22 420.5 138.296L421.448 136.536ZM408.796 124.137C405.817 118.675 404.31 112.275 404.31 104.904H402.31C402.31 112.552 403.875 119.293 407.04 125.095L408.796 124.137ZM404.31 104.904C404.31 97.5329 405.817 91.1777 408.793 85.8045L407.043 84.8355C403.875 90.5556 402.31 97.2565 402.31 104.904H404.31ZM408.79 85.809C411.857 80.3383 416.073 76.1668 421.448 73.2725L420.5 71.5115C414.782 74.5906 410.293 79.0377 407.046 84.831L408.79 85.809ZM421.443 73.2755C426.913 70.3744 433.149 68.912 440.174 68.912V66.912C432.863 66.912 426.299 68.4362 420.505 71.5085L421.443 73.2755ZM440.174 68.912C447.2 68.912 453.39 70.3745 458.772 73.2725L459.72 71.5115C454.009 68.4361 447.484 66.912 440.174 66.912V68.912ZM458.788 73.281C464.248 76.0938 468.455 80.1374 471.43 85.4263L473.174 84.4457C470.005 78.8119 465.508 74.4929 459.704 71.503L458.788 73.281ZM471.436 85.4365C474.491 90.7207 476.038 96.9844 476.038 104.264H478.038C478.038 96.6956 476.427 90.074 473.168 84.4355L471.436 85.4365ZM449.238 97.48C449.238 94.86 448.383 92.742 446.548 91.3146L445.32 92.8933C446.557 93.8554 447.238 95.3213 447.238 97.48H449.238ZM446.574 91.3358C444.832 89.8836 442.674 89.184 440.174 89.184V91.184C442.282 91.184 443.964 91.7644 445.294 92.8722L446.574 91.3358ZM440.174 89.184C437.499 89.184 435.255 89.8315 433.553 91.237C431.849 92.6446 430.813 94.7109 430.357 97.3072L432.327 97.6528C432.725 95.3851 433.587 93.8034 434.827 92.779C436.069 91.7525 437.814 91.184 440.174 91.184V89.184ZM431.342 98.48H448.238V96.48H431.342V98.48ZM499.977 138.568L499.585 139.488L499.59 139.49L499.977 138.568ZM482.313 116.04V115.04H481.223L481.317 116.126L482.313 116.04ZM509.577 116.04L510.564 115.882L510.43 115.04H509.577V116.04ZM512.265 120.776L511.688 121.593L511.699 121.601L511.71 121.608L512.265 120.776ZM521.481 121.416L522.054 122.235L522.081 122.217L522.106 122.197L521.481 121.416ZM510.985 113.224L511.181 112.243L511.178 112.243L510.985 113.224ZM498.057 109.896L497.719 110.837L497.727 110.84L498.057 109.896ZM489.225 103.752L488.464 104.401L488.47 104.407L488.475 104.414L489.225 103.752ZM488.969 79.688L488.131 79.1423L488.128 79.1472L488.969 79.688ZM499.465 71.112L499.871 72.0258L499.878 72.0227L499.885 72.0195L499.465 71.112ZM539.017 75.08L538.358 75.8326L538.364 75.8376L539.017 75.08ZM549.001 93.768V94.768H550.156L549.991 93.625L549.001 93.768ZM523.785 93.768L522.808 93.9804L522.979 94.768H523.785V93.768ZM521.097 89.288L520.466 90.0641L520.481 90.0764L520.497 90.088L521.097 89.288ZM512.265 88.52L512.82 89.352L512.85 89.3318L512.879 89.3093L512.265 88.52ZM513.801 94.28L513.407 95.1991L513.426 95.2072L513.445 95.2145L513.801 94.28ZM522.377 96.456L522.57 95.4748L522.569 95.4746L522.377 96.456ZM535.561 99.912L535.225 100.854L535.225 100.854L535.561 99.912ZM544.905 106.568L544.138 107.21L544.147 107.221L544.905 106.568ZM545.161 130.888L545.971 131.475L545.971 131.475L545.161 130.888ZM534.409 138.952L534.023 138.029L534.017 138.032L534.409 138.952ZM518.153 140.896C511.434 140.896 505.511 139.804 500.364 137.646L499.59 139.49C505.024 141.769 511.218 142.896 518.153 142.896V140.896ZM500.369 137.648C495.298 135.487 491.303 132.511 488.349 128.736L486.773 129.968C489.963 134.044 494.246 137.212 499.585 139.488L500.369 137.648ZM488.349 128.736C485.396 124.963 483.719 120.709 483.309 115.954L481.317 116.126C481.76 121.269 483.582 125.891 486.773 129.968L488.349 128.736ZM482.313 117.04H509.577V115.04H482.313V117.04ZM508.59 116.198C508.964 118.536 509.971 120.381 511.688 121.593L512.842 119.959C511.657 119.123 510.873 117.811 510.564 115.882L508.59 116.198ZM511.71 121.608C513.447 122.766 515.573 123.312 518.025 123.312V121.312C515.869 121.312 514.155 120.834 512.82 119.944L511.71 121.608ZM518.025 123.312C519.603 123.312 520.979 122.988 522.054 122.235L520.908 120.597C520.277 121.038 519.349 121.312 518.025 121.312V123.312ZM522.106 122.197C523.153 121.359 523.761 120.278 523.761 118.984H521.761C521.761 119.567 521.516 120.107 520.856 120.635L522.106 122.197ZM523.761 118.984C523.761 117.977 523.478 117.061 522.878 116.29C522.288 115.531 521.444 114.98 520.429 114.594L519.717 116.462C520.494 116.759 520.994 117.125 521.3 117.518C521.596 117.899 521.761 118.37 521.761 118.984H523.761ZM520.429 114.594C518.552 113.879 515.452 113.097 511.181 112.243L510.789 114.205C515.052 115.057 518.01 115.812 519.717 116.462L520.429 114.594ZM511.178 112.243C506 111.224 501.74 110.126 498.387 108.952L497.727 110.84C501.2 112.056 505.559 113.176 510.792 114.205L511.178 112.243ZM498.395 108.955C495.24 107.822 492.434 105.877 489.975 103.09L488.475 104.414C491.136 107.429 494.218 109.58 497.719 110.837L498.395 108.955ZM489.986 103.103C487.712 100.437 486.513 96.6842 486.513 91.72H484.513C484.513 96.9958 485.789 101.265 488.464 104.401L489.986 103.103ZM486.513 91.72C486.513 87.466 487.614 83.6446 489.81 80.2288L488.128 79.1472C485.716 82.8994 484.513 87.0993 484.513 91.72H486.513ZM489.807 80.2337C492.076 76.7496 495.412 74.0076 499.871 72.0258L499.059 70.1982C494.302 72.3124 490.641 75.2877 488.131 79.1423L489.807 80.2337ZM499.885 72.0195C504.329 69.9622 509.766 68.912 516.233 68.912V66.912C509.558 66.912 503.817 67.9951 499.045 70.2045L499.885 72.0195ZM516.233 68.912C525.802 68.912 533.134 71.2609 538.358 75.8326L539.676 74.3274C533.978 69.3418 526.12 66.912 516.233 66.912V68.912ZM538.364 75.8376C543.717 80.4488 546.934 86.4542 548.011 93.911L549.991 93.625C548.849 85.7218 545.411 79.2685 539.67 74.3224L538.364 75.8376ZM549.001 92.768H523.785V94.768H549.001V92.768ZM524.762 93.5556C524.294 91.4019 523.288 89.681 521.697 88.488L520.497 90.088C521.637 90.943 522.423 92.2088 522.808 93.9804L524.762 93.5556ZM521.728 88.5119C520.135 87.2181 518.055 86.624 515.593 86.624V88.624C517.739 88.624 519.328 89.1392 520.466 90.0641L521.728 88.5119ZM515.593 86.624C514.024 86.624 512.662 86.9441 511.651 87.7306L512.879 89.3093C513.404 88.9012 514.26 88.624 515.593 88.624V86.624ZM511.71 87.6879C510.605 88.4246 510.113 89.5858 510.113 90.952H512.113C512.113 90.0995 512.389 89.6394 512.82 89.352L511.71 87.6879ZM510.113 90.952C510.113 91.9017 510.413 92.7645 511.007 93.5003C511.588 94.2197 512.414 94.7734 513.407 95.1991L514.195 93.3609C513.396 93.0186 512.878 92.6336 512.563 92.2437C512.261 91.8702 512.113 91.453 512.113 90.952H510.113ZM513.445 95.2145C515.321 95.9292 518.25 96.6675 522.185 97.4374L522.569 95.4746C518.653 94.7084 515.865 93.9961 514.157 93.3455L513.445 95.2145ZM522.184 97.4372C527.358 98.455 531.702 99.5955 535.225 100.854L535.897 98.9703C532.252 97.6685 527.807 96.505 522.57 95.4748L522.184 97.4372ZM535.225 100.854C538.627 102.069 541.598 104.178 544.138 107.21L545.672 105.926C542.922 102.644 539.663 100.315 535.897 98.9703L535.225 100.854ZM544.147 107.221C546.589 110.056 547.873 114.062 547.873 119.368H549.873C549.873 113.751 548.511 109.224 545.663 105.915L544.147 107.221ZM547.873 119.368C547.873 123.427 546.701 127.061 544.351 130.301L545.971 131.475C548.571 127.889 549.873 123.843 549.873 119.368H547.873ZM544.351 130.301C542.005 133.538 538.582 136.123 534.023 138.029L534.795 139.875C539.622 137.856 543.368 135.065 545.971 131.475L544.351 130.301ZM534.017 138.032C529.559 139.931 524.279 140.896 518.153 140.896V142.896C524.485 142.896 530.043 141.899 534.801 139.872L534.017 138.032Z" fill="#434242" fill-opacity="0.32"/>
<defs>
<filter id="filter0_f_644_385" x="0.0959473" y="26.888" width="556.905" height="123.136" filterUnits="userSpaceOnUse" color-interpolation-filters="sRGB">
<feFlood flood-opacity="0" result="BackgroundImageFix"/>
<feBlend mode="normal" in="SourceGraphic" in2="BackgroundImageFix" result="shape"/>
<feGaussianBlur stdDeviation="4" result="effect1_foregroundBlur_644_385"/>
</filter>
<linearGradient id="paint0_linear_644_385" x1="-5" y1="121.5" x2="559.5" y2="112.5" gradientUnits="userSpaceOnUse">
<stop stop-color="#0019FC"/>
<stop offset="0.541667" stop-color="#8000FF"/>
<stop offset="1" stop-color="#CC00FF"/>
</linearGradient>
<linearGradient id="paint1_linear_644_385" x1="-5" y1="121.5" x2="559.5" y2="112.5" gradientUnits="userSpaceOnUse">
<stop stop-color="#0019FC"/>
<stop offset="0.541667" stop-color="#8000FF"/>
<stop offset="1" stop-color="#CC00FF"/>
</linearGradient>
</defs>
</svg>
