<svg width="543" height="108" viewBox="0 0 543 108" fill="none" xmlns="http://www.w3.org/2000/svg">
<path d="M17.48 108.024C12.5307 108.024 8.56267 106.701 5.576 104.056C2.58933 101.411 1.096 98.0827 1.096 94.072C1.096 89.976 2.58933 86.6053 5.576 83.96C8.56267 81.2293 12.5307 79.864 17.48 79.864C22.344 79.864 26.2693 81.2293 29.256 83.96C32.2427 86.6053 33.736 89.976 33.736 94.072C33.736 98.0827 32.2427 101.411 29.256 104.056C26.2693 106.701 22.344 108.024 17.48 108.024ZM40.435 70.904C40.435 63.3093 41.715 56.7387 44.275 51.192C46.9203 45.56 50.5043 41.2933 55.027 38.392C59.5497 35.4053 64.627 33.912 70.259 33.912C74.9523 33.912 78.963 34.8933 82.291 36.856C85.7043 38.7333 88.307 41.336 90.099 44.664V12.28H118.515V107H90.099V97.144C88.307 100.472 85.7043 103.117 82.291 105.08C78.963 106.957 74.9523 107.896 70.259 107.896C64.627 107.896 59.5497 106.445 55.027 103.544C50.5043 100.557 46.9203 96.2907 44.275 90.744C41.715 85.112 40.435 78.4987 40.435 70.904ZM90.227 70.904C90.227 67.064 89.2457 64.0773 87.283 61.944C85.3203 59.8107 82.803 58.744 79.731 58.744C76.659 58.744 74.1417 59.8107 72.179 61.944C70.2163 64.0773 69.235 67.064 69.235 70.904C69.235 74.744 70.2163 77.7307 72.179 79.864C74.1417 81.9973 76.659 83.064 79.731 83.064C82.803 83.064 85.3203 81.9973 87.283 79.864C89.2457 77.7307 90.227 74.744 90.227 70.904ZM165.579 107.896C158.326 107.896 151.798 106.403 145.995 103.416C140.192 100.429 135.627 96.1627 132.299 90.616C129.056 84.984 127.435 78.4133 127.435 70.904C127.435 63.3947 129.056 56.8667 132.299 51.32C135.627 45.688 140.192 41.3787 145.995 38.392C151.798 35.4053 158.326 33.912 165.579 33.912C172.832 33.912 179.36 35.4053 185.163 38.392C190.966 41.3787 195.488 45.688 198.731 51.32C202.059 56.8667 203.723 63.3947 203.723 70.904C203.723 78.4133 202.059 84.984 198.731 90.616C195.488 96.1627 190.966 100.429 185.163 103.416C179.36 106.403 172.832 107.896 165.579 107.896ZM165.579 83.32C168.224 83.32 170.443 82.296 172.235 80.248C174.027 78.1147 174.923 75 174.923 70.904C174.923 66.808 174.027 63.736 172.235 61.688C170.443 59.5547 168.224 58.488 165.579 58.488C162.934 58.488 160.715 59.5547 158.923 61.688C157.131 63.736 156.235 66.808 156.235 70.904C156.235 75 157.088 78.1147 158.795 80.248C160.587 82.296 162.848 83.32 165.579 83.32ZM257.578 82.808V107H246.826C227.029 107 217.13 97.144 217.13 77.432V58.488H208.17V34.808H217.13V17.4H245.546V34.808H257.322V58.488H245.546V77.944C245.546 79.6507 245.93 80.888 246.698 81.656C247.551 82.424 248.917 82.808 250.794 82.808H257.578ZM310 29.688C308.464 29.5173 307.397 29.432 306.8 29.432C304.667 29.432 303.045 29.8587 301.936 30.712C300.827 31.48 300.059 32.8453 299.632 34.808H310V58.488H299.376V107H270.96V58.488H263.28V34.808H270.96C271.131 25.4213 274.075 18.168 279.792 13.048C285.595 7.84266 293.701 5.24 304.112 5.24C305.307 5.24 307.269 5.32533 310 5.49599V29.688ZM331.986 29.048C327.037 29.048 323.069 27.7253 320.082 25.08C317.095 22.4347 315.602 19.1067 315.602 15.096C315.602 11 317.095 7.62933 320.082 4.98399C323.069 2.25333 327.037 0.887993 331.986 0.887993C336.85 0.887993 340.775 2.25333 343.762 4.98399C346.749 7.62933 348.242 11 348.242 15.096C348.242 19.1067 346.749 22.4347 343.762 25.08C340.775 27.7253 336.85 29.048 331.986 29.048ZM346.066 34.808V107H317.65V34.808H346.066ZM387.316 12.28V107H358.9V12.28H387.316ZM470.038 70.264C470.038 72.2267 469.91 74.104 469.654 75.896H423.958C424.385 82.1253 426.987 85.24 431.766 85.24C434.838 85.24 437.057 83.832 438.422 81.016H468.502C467.478 86.136 465.302 90.744 461.974 94.84C458.731 98.8507 454.593 102.051 449.558 104.44C444.609 106.744 439.147 107.896 433.174 107.896C426.006 107.896 419.606 106.403 413.974 103.416C408.427 100.429 404.075 96.1627 400.918 90.616C397.846 84.984 396.31 78.4133 396.31 70.904C396.31 63.3947 397.846 56.8667 400.918 51.32C404.075 45.688 408.427 41.3787 413.974 38.392C419.606 35.4053 426.006 33.912 433.174 33.912C440.342 33.912 446.699 35.4053 452.246 38.392C457.878 41.2933 462.23 45.4747 465.302 50.936C468.459 56.3973 470.038 62.84 470.038 70.264ZM441.238 63.48C441.238 61.0907 440.47 59.2987 438.934 58.104C437.398 56.824 435.478 56.184 433.174 56.184C428.139 56.184 425.195 58.616 424.342 63.48H441.238ZM511.153 107.896C504.326 107.896 498.268 106.787 492.977 104.568C487.772 102.349 483.633 99.2773 480.561 95.352C477.489 91.4267 475.74 86.9893 475.313 82.04H502.577C502.918 84.1733 503.814 85.752 505.265 86.776C506.801 87.8 508.721 88.312 511.025 88.312C512.476 88.312 513.628 88.0133 514.481 87.416C515.334 86.7333 515.761 85.9227 515.761 84.984C515.761 83.3627 514.865 82.2107 513.073 81.528C511.281 80.8453 508.252 80.0773 503.985 79.224C498.78 78.2 494.47 77.0907 491.057 75.896C487.729 74.7013 484.785 72.6533 482.225 69.752C479.75 66.8507 478.513 62.84 478.513 57.72C478.513 53.2827 479.665 49.272 481.969 45.688C484.358 42.0187 487.857 39.16 492.465 37.112C497.073 34.9787 502.662 33.912 509.233 33.912C518.961 33.912 526.556 36.3013 532.017 41.08C537.564 45.8587 540.892 52.088 542.001 59.768H516.785C516.358 57.8053 515.462 56.312 514.097 55.288C512.732 54.1787 510.897 53.624 508.593 53.624C507.142 53.624 506.033 53.9227 505.265 54.52C504.497 55.032 504.113 55.8427 504.113 56.952C504.113 58.4027 505.009 59.512 506.801 60.28C508.593 60.9627 511.452 61.688 515.377 62.456C520.582 63.48 524.977 64.632 528.561 65.912C532.145 67.192 535.26 69.4107 537.905 72.568C540.55 75.64 541.873 79.9067 541.873 85.368C541.873 89.6347 540.636 93.4747 538.161 96.888C535.686 100.301 532.102 102.989 527.409 104.952C522.801 106.915 517.382 107.896 511.153 107.896Z" fill="url(#paint0_linear_644_385)"/>
<path d="M5.576 104.056L4.91296 104.805L5.576 104.056ZM5.576 83.96L6.23904 84.7086L6.24494 84.7034L6.25077 84.698L5.576 83.96ZM29.256 83.96L28.5812 84.698L28.5871 84.7034L28.593 84.7086L29.256 83.96ZM29.256 104.056L28.593 103.307L28.593 103.307L29.256 104.056ZM17.48 107.024C12.7139 107.024 9.00173 105.754 6.23904 103.307L4.91296 104.805C8.1236 107.648 12.3475 109.024 17.48 109.024V107.024ZM6.23904 103.307C3.46795 100.853 2.096 97.7981 2.096 94.072H0.0960002C0.0960002 98.3672 1.71072 101.968 4.91296 104.805L6.23904 103.307ZM2.096 94.072C2.096 90.2535 3.47309 87.1584 6.23904 84.7086L4.91296 83.2114C1.70558 86.0522 0.0960002 89.6984 0.0960002 94.072H2.096ZM6.25077 84.698C9.01409 82.1716 12.722 80.864 17.48 80.864V78.864C12.3394 78.864 8.11124 80.2871 4.90123 83.222L6.25077 84.698ZM17.48 80.864C22.1475 80.864 25.8147 82.1686 28.5812 84.698L29.9308 83.222C26.7239 80.29 22.5405 78.864 17.48 78.864V80.864ZM28.593 84.7086C31.3589 87.1584 32.736 90.2535 32.736 94.072H34.736C34.736 89.6984 33.1264 86.0522 29.919 83.2114L28.593 84.7086ZM32.736 94.072C32.736 97.7981 31.3641 100.853 28.593 103.307L29.919 104.805C33.1213 101.968 34.736 98.3672 34.736 94.072H32.736ZM28.593 103.307C25.8271 105.757 22.1557 107.024 17.48 107.024V109.024C22.5323 109.024 26.7115 107.646 29.919 104.805L28.593 103.307ZM44.275 51.192L43.3699 50.7669L43.367 50.7729L44.275 51.192ZM55.027 38.392L55.567 39.2338L55.5781 39.2265L55.027 38.392ZM82.291 36.856L81.783 37.7174L81.7959 37.725L81.8091 37.7322L82.291 36.856ZM90.099 44.664L89.2185 45.1381L91.099 44.664H90.099ZM90.099 12.28V11.28H89.099V12.28H90.099ZM118.515 12.28H119.515V11.28H118.515V12.28ZM118.515 107V108H119.515V107H118.515ZM90.099 107H89.099V108H90.099V107ZM90.099 97.144H91.099L89.2185 96.6699L90.099 97.144ZM82.291 105.08L82.7823 105.951L82.7895 105.947L82.291 105.08ZM55.027 103.544L54.4759 104.379L54.487 104.386L55.027 103.544ZM44.275 90.744L43.3646 91.1578L43.3684 91.1662L43.3724 91.1745L44.275 90.744ZM87.283 61.944L88.0189 61.2669L88.0189 61.2669L87.283 61.944ZM72.179 61.944L71.4431 61.2669L71.4431 61.2669L72.179 61.944ZM41.435 70.904C41.435 63.4198 42.6965 56.9984 45.183 51.6111L43.367 50.7729C40.7335 56.4789 39.435 63.1989 39.435 70.904H41.435ZM45.1801 51.6171C47.7583 46.1281 51.2266 42.0181 55.567 39.2337L54.487 37.5503C49.7821 40.5686 46.0824 44.9919 43.3699 50.7669L45.1801 51.6171ZM55.5781 39.2265C59.9306 36.3521 64.8148 34.912 70.259 34.912V32.912C64.4392 32.912 59.1687 34.4585 54.4759 37.5575L55.5781 39.2265ZM70.259 34.912C74.812 34.912 78.6389 35.8631 81.783 37.7174L82.799 35.9946C79.2871 33.9235 75.0927 32.912 70.259 32.912V34.912ZM81.8091 37.7322C85.0591 39.5197 87.5208 41.9851 89.2185 45.1381L90.9795 44.1899C89.0932 40.6869 86.3496 37.947 82.7729 35.9798L81.8091 37.7322ZM91.099 44.664V12.28H89.099V44.664H91.099ZM90.099 13.28H118.515V11.28H90.099V13.28ZM117.515 12.28V107H119.515V12.28H117.515ZM118.515 106H90.099V108H118.515V106ZM91.099 107V97.144H89.099V107H91.099ZM89.2185 96.6699C87.5186 99.8269 85.0515 102.339 81.7925 104.213L82.7895 105.947C86.3572 103.895 89.0954 101.117 90.9795 97.6181L89.2185 96.6699ZM81.7997 104.209C78.6523 105.984 74.8192 106.896 70.259 106.896V108.896C75.0855 108.896 79.2737 107.93 82.7823 105.951L81.7997 104.209ZM70.259 106.896C64.8087 106.896 59.9205 105.495 55.567 102.702L54.487 104.386C59.1788 107.395 64.4453 108.896 70.259 108.896V106.896ZM55.5781 102.71C51.2266 99.8359 47.7554 95.7185 45.1776 90.3135L43.3724 91.1745C46.0853 96.8628 49.782 101.279 54.4759 104.378L55.5781 102.71ZM45.1854 90.3302C42.6963 84.8542 41.435 78.3876 41.435 70.904H39.435C39.435 78.6097 40.7337 85.3698 43.3646 91.1578L45.1854 90.3302ZM91.227 70.904C91.227 66.8965 90.2004 63.6381 88.0189 61.2669L86.5471 62.6211C88.2909 64.5165 89.227 67.2315 89.227 70.904H91.227ZM88.0189 61.2669C85.8545 58.9143 83.0639 57.744 79.731 57.744V59.744C82.5421 59.744 84.7861 60.707 86.5471 62.6211L88.0189 61.2669ZM79.731 57.744C76.3981 57.744 73.6075 58.9143 71.4431 61.2669L72.9149 62.6211C74.6759 60.707 76.9199 59.744 79.731 59.744V57.744ZM71.4431 61.2669C69.2616 63.6381 68.235 66.8965 68.235 70.904H70.235C70.235 67.2315 71.1711 64.5165 72.9149 62.6211L71.4431 61.2669ZM68.235 70.904C68.235 74.9115 69.2616 78.1698 71.4431 80.5411L72.9149 79.1869C71.1711 77.2915 70.235 74.5765 70.235 70.904H68.235ZM71.4431 80.5411C73.6075 82.8937 76.3981 84.064 79.731 84.064V82.064C76.9199 82.064 74.6759 81.101 72.9149 79.1869L71.4431 80.5411ZM79.731 84.064C83.0639 84.064 85.8545 82.8937 88.0189 80.5411L86.5471 79.1869C84.7861 81.101 82.5421 82.064 79.731 82.064V84.064ZM88.0189 80.5411C90.2004 78.1698 91.227 74.9115 91.227 70.904H89.227C89.227 74.5765 88.2909 77.2915 86.5471 79.1869L88.0189 80.5411ZM145.995 103.416L146.453 102.527L145.995 103.416ZM132.299 90.616L131.432 91.115L131.437 91.1228L131.442 91.1305L132.299 90.616ZM132.299 51.32L131.438 50.8113L131.436 50.8153L132.299 51.32ZM145.995 38.392L146.453 39.2811L146.453 39.2811L145.995 38.392ZM185.163 38.392L184.705 39.2811L184.705 39.2811L185.163 38.392ZM198.731 51.32L197.864 51.819L197.869 51.8268L197.874 51.8345L198.731 51.32ZM198.731 90.616L197.87 90.1073L197.868 90.1113L198.731 90.616ZM185.163 103.416L184.705 102.527L184.705 102.527L185.163 103.416ZM172.235 80.248L172.988 80.9065L172.994 80.8989L173.001 80.8912L172.235 80.248ZM172.235 61.688L171.469 62.3312L171.476 62.3389L171.482 62.3465L172.235 61.688ZM158.923 61.688L159.676 62.3465L159.682 62.3389L159.689 62.3312L158.923 61.688ZM158.795 80.248L158.014 80.8727L158.028 80.8899L158.042 80.9065L158.795 80.248ZM165.579 106.896C158.467 106.896 152.099 105.433 146.453 102.527L145.537 104.305C151.497 107.372 158.184 108.896 165.579 108.896V106.896ZM146.453 102.527C140.814 99.6246 136.388 95.487 133.156 90.1015L131.442 91.1305C134.866 96.8383 139.571 101.234 145.537 104.305L146.453 102.527ZM133.166 90.117C130.023 84.659 128.435 78.2658 128.435 70.904H126.435C126.435 78.5609 128.09 85.309 131.432 91.115L133.166 90.117ZM128.435 70.904C128.435 63.5418 130.023 57.1941 133.162 51.8247L131.436 50.8153C128.089 56.5393 126.435 63.2475 126.435 70.904H128.435ZM133.16 51.8287C136.392 46.3586 140.818 42.1813 146.453 39.2811L145.537 37.5029C139.567 40.576 134.862 45.0174 131.438 50.8113L133.16 51.8287ZM146.453 39.2811C152.099 36.3751 158.467 34.912 165.579 34.912V32.912C158.184 32.912 151.497 34.4355 145.537 37.5029L146.453 39.2811ZM165.579 34.912C172.691 34.912 179.059 36.3751 184.705 39.2811L185.621 37.5029C179.661 34.4355 172.974 32.912 165.579 32.912V34.912ZM184.705 39.2811C190.338 42.1802 194.718 46.3544 197.864 51.819L199.598 50.821C196.259 45.0216 191.594 40.5772 185.621 37.5029L184.705 39.2811ZM197.874 51.8345C201.094 57.2022 202.723 63.5463 202.723 70.904H204.723C204.723 63.243 203.024 56.5311 199.588 50.8055L197.874 51.8345ZM202.723 70.904C202.723 78.2613 201.094 84.651 197.87 90.1073L199.592 91.1247C203.024 85.317 204.723 78.5654 204.723 70.904H202.723ZM197.868 90.1113C194.723 95.4912 190.342 99.6257 184.705 102.527L185.621 104.305C191.59 101.233 196.254 96.8342 199.594 91.1207L197.868 90.1113ZM184.705 102.527C179.059 105.433 172.691 106.896 165.579 106.896V108.896C172.974 108.896 179.661 107.372 185.621 104.305L184.705 102.527ZM165.579 84.32C168.522 84.32 171.012 83.1644 172.988 80.9065L171.482 79.5895C169.874 81.4276 167.927 82.32 165.579 82.32V84.32ZM173.001 80.8912C175.001 78.5097 175.923 75.1278 175.923 70.904H173.923C173.923 74.8722 173.053 77.7196 171.469 79.6048L173.001 80.8912ZM175.923 70.904C175.923 66.6842 175.003 63.3326 172.988 61.0295L171.482 62.3465C173.051 64.1394 173.923 66.9318 173.923 70.904H175.923ZM173.001 61.0448C171.03 58.6991 168.537 57.488 165.579 57.488V59.488C167.911 59.488 169.856 60.4103 171.469 62.3312L173.001 61.0448ZM165.579 57.488C162.621 57.488 160.128 58.6991 158.157 61.0448L159.689 62.3312C161.302 60.4103 163.247 59.488 165.579 59.488V57.488ZM158.17 61.0295C156.155 63.3326 155.235 66.6842 155.235 70.904H157.235C157.235 66.9318 158.107 64.1394 159.676 62.3465L158.17 61.0295ZM155.235 70.904C155.235 75.1184 156.11 78.4926 158.014 80.8727L159.576 79.6233C158.067 77.7367 157.235 74.8816 157.235 70.904H155.235ZM158.042 80.9065C160.025 83.1724 162.561 84.32 165.579 84.32V82.32C163.136 82.32 161.149 81.4196 159.548 79.5895L158.042 80.9065ZM257.578 82.808H258.578V81.808H257.578V82.808ZM257.578 107V108H258.578V107H257.578ZM217.13 58.488H218.13V57.488H217.13V58.488ZM208.17 58.488H207.17V59.488H208.17V58.488ZM208.17 34.808V33.808H207.17V34.808H208.17ZM217.13 34.808V35.808H218.13V34.808H217.13ZM217.13 17.4V16.4H216.13V17.4H217.13ZM245.546 17.4H246.546V16.4H245.546V17.4ZM245.546 34.808H244.546V35.808H245.546V34.808ZM257.322 34.808H258.322V33.808H257.322V34.808ZM257.322 58.488V59.488H258.322V58.488H257.322ZM245.546 58.488V57.488H244.546V58.488H245.546ZM246.698 81.656L245.991 82.3631L246.009 82.3817L246.029 82.3993L246.698 81.656ZM256.578 82.808V107H258.578V82.808H256.578ZM257.578 106H246.826V108H257.578V106ZM246.826 106C237.08 106 229.955 103.575 225.26 98.8994C220.565 94.2249 218.13 87.1328 218.13 77.432H216.13C216.13 87.4432 218.644 95.1351 223.848 100.317C229.052 105.497 236.774 108 246.826 108V106ZM218.13 77.432V58.488H216.13V77.432H218.13ZM217.13 57.488H208.17V59.488H217.13V57.488ZM209.17 58.488V34.808H207.17V58.488H209.17ZM208.17 35.808H217.13V33.808H208.17V35.808ZM218.13 34.808V17.4H216.13V34.808H218.13ZM217.13 18.4H245.546V16.4H217.13V18.4ZM244.546 17.4V34.808H246.546V17.4H244.546ZM245.546 35.808H257.322V33.808H245.546V35.808ZM256.322 34.808V58.488H258.322V34.808H256.322ZM257.322 57.488H245.546V59.488H257.322V57.488ZM244.546 58.488V77.944H246.546V58.488H244.546ZM244.546 77.944C244.546 79.7689 244.952 81.3244 245.991 82.3631L247.405 80.9489C246.908 80.4516 246.546 79.5324 246.546 77.944H244.546ZM246.029 82.3993C247.152 83.41 248.817 83.808 250.794 83.808V81.808C249.016 81.808 247.951 81.438 247.367 80.9127L246.029 82.3993ZM250.794 83.808H257.578V81.808H250.794V83.808ZM310 29.688L309.89 30.6819L311 30.8053V29.688H310ZM301.936 30.712L302.505 31.5342L302.526 31.5199L302.546 31.5046L301.936 30.712ZM299.632 34.808L298.655 34.5956L298.391 35.808H299.632V34.808ZM310 34.808H311V33.808H310V34.808ZM310 58.488V59.488H311V58.488H310ZM299.376 58.488V57.488H298.376V58.488H299.376ZM299.376 107V108H300.376V107H299.376ZM270.96 107H269.96V108H270.96V107ZM270.96 58.488H271.96V57.488H270.96V58.488ZM263.28 58.488H262.28V59.488H263.28V58.488ZM263.28 34.808V33.808H262.28V34.808H263.28ZM270.96 34.808V35.808H271.942L271.96 34.8262L270.96 34.808ZM279.792 13.048L280.459 13.7929L280.46 13.7924L279.792 13.048ZM310 5.49599H311V4.55654L310.062 4.49794L310 5.49599ZM310.11 28.6941C308.577 28.5238 307.46 28.432 306.8 28.432V30.432C307.335 30.432 308.351 30.5109 309.89 30.6819L310.11 28.6941ZM306.8 28.432C304.556 28.432 302.681 28.8773 301.326 29.9194L302.546 31.5046C303.41 30.84 304.778 30.432 306.8 30.432V28.432ZM301.367 29.8898C299.967 30.8588 299.11 32.504 298.655 34.5956L300.609 35.0204C301.008 33.1867 301.686 32.1012 302.505 31.5342L301.367 29.8898ZM299.632 35.808H310V33.808H299.632V35.808ZM309 34.808V58.488H311V34.808H309ZM310 57.488H299.376V59.488H310V57.488ZM298.376 58.488V107H300.376V58.488H298.376ZM299.376 106H270.96V108H299.376V106ZM271.96 107V58.488H269.96V107H271.96ZM270.96 57.488H263.28V59.488H270.96V57.488ZM264.28 58.488V34.808H262.28V58.488H264.28ZM263.28 35.808H270.96V33.808H263.28V35.808ZM271.96 34.8262C272.127 25.6507 274.994 18.6872 280.459 13.7929L279.125 12.303C273.155 17.6488 270.135 25.192 269.96 34.7898L271.96 34.8262ZM280.46 13.7924C286.025 8.80022 293.864 6.24 304.112 6.24V4.24C293.539 4.24 285.165 6.8851 279.124 12.3036L280.46 13.7924ZM304.112 6.24C305.273 6.24 307.208 6.32346 309.938 6.49405L310.062 4.49794C307.33 4.3272 305.341 4.24 304.112 4.24V6.24ZM309 5.49599V29.688H311V5.49599H309ZM320.082 25.08L320.745 24.3314L320.745 24.3314L320.082 25.08ZM320.082 4.98399L320.745 5.73258L320.751 5.72735L320.757 5.72202L320.082 4.98399ZM343.762 4.98399L343.087 5.72202L343.093 5.72735L343.099 5.73258L343.762 4.98399ZM343.762 25.08L343.099 24.3314L343.099 24.3314L343.762 25.08ZM346.066 34.808H347.066V33.808H346.066V34.808ZM346.066 107V108H347.066V107H346.066ZM317.65 107H316.65V108H317.65V107ZM317.65 34.808V33.808H316.65V34.808H317.65ZM331.986 28.048C327.22 28.048 323.508 26.7784 320.745 24.3314L319.419 25.8286C322.63 28.6723 326.853 30.048 331.986 30.048V28.048ZM320.745 24.3314C317.974 21.877 316.602 18.8221 316.602 15.096H314.602C314.602 19.3912 316.217 22.9923 319.419 25.8286L320.745 24.3314ZM316.602 15.096C316.602 11.2775 317.979 8.18242 320.745 5.73258L319.419 4.23541C316.212 7.07624 314.602 10.7224 314.602 15.096H316.602ZM320.757 5.72202C323.52 3.19555 327.228 1.88799 331.986 1.88799V-0.112007C326.845 -0.112007 322.617 1.3111 319.407 4.24596L320.757 5.72202ZM331.986 1.88799C336.653 1.88799 340.321 3.19264 343.087 5.72202L344.437 4.24596C341.23 1.31401 337.047 -0.112007 331.986 -0.112007V1.88799ZM343.099 5.73258C345.865 8.18242 347.242 11.2775 347.242 15.096H349.242C349.242 10.7224 347.632 7.07624 344.425 4.23541L343.099 5.73258ZM347.242 15.096C347.242 18.8221 345.87 21.877 343.099 24.3314L344.425 25.8286C347.627 22.9923 349.242 19.3912 349.242 15.096H347.242ZM343.099 24.3314C340.333 26.7811 336.662 28.048 331.986 28.048V30.048C337.038 30.048 341.218 28.6695 344.425 25.8286L343.099 24.3314ZM345.066 34.808V107H347.066V34.808H345.066ZM346.066 106H317.65V108H346.066V106ZM318.65 107V34.808H316.65V107H318.65ZM317.65 35.808H346.066V33.808H317.65V35.808ZM387.316 12.28H388.316V11.28H387.316V12.28ZM387.316 107V108H388.316V107H387.316ZM358.9 107H357.9V108H358.9V107ZM358.9 12.28V11.28H357.9V12.28H358.9ZM386.316 12.28V107H388.316V12.28H386.316ZM387.316 106H358.9V108H387.316V106ZM359.9 107V12.28H357.9V107H359.9ZM358.9 13.28H387.316V11.28H358.9V13.28ZM469.654 75.896V76.896H470.521L470.644 76.0374L469.654 75.896ZM423.958 75.896V74.896H422.887L422.96 75.9643L423.958 75.896ZM438.422 81.016V80.016H437.796L437.522 80.5797L438.422 81.016ZM468.502 81.016L469.483 81.2121L469.722 80.016H468.502V81.016ZM461.974 94.84L461.198 94.2094L461.196 94.2113L461.974 94.84ZM449.558 104.44L449.98 105.347L449.987 105.343L449.558 104.44ZM413.974 103.416L413.5 104.296L413.505 104.299L413.974 103.416ZM400.918 90.616L400.04 91.0949L400.044 91.1028L400.049 91.1107L400.918 90.616ZM400.918 51.32L400.046 50.831L400.043 50.8355L400.918 51.32ZM413.974 38.392L413.505 37.5085L413.5 37.5115L413.974 38.392ZM452.246 38.392L451.772 39.2725L451.78 39.2768L451.788 39.281L452.246 38.392ZM465.302 50.936L464.43 51.4263L464.436 51.4365L465.302 50.936ZM441.238 63.48V64.48H442.238V63.48H441.238ZM438.934 58.104L438.294 58.8722L438.307 58.883L438.32 58.8933L438.934 58.104ZM424.342 63.48L423.357 63.3072L423.151 64.48H424.342V63.48ZM469.038 70.264C469.038 72.1833 468.913 74.0131 468.664 75.7546L470.644 76.0374C470.907 74.1949 471.038 72.2701 471.038 70.264H469.038ZM469.654 74.896H423.958V76.896H469.654V74.896ZM422.96 75.9643C423.181 79.1833 423.971 81.7599 425.463 83.5452C426.988 85.3712 429.139 86.24 431.766 86.24V84.24C429.615 84.24 428.074 83.5515 426.997 82.2628C425.886 80.9334 425.162 78.8381 424.956 75.8277L422.96 75.9643ZM431.766 86.24C433.459 86.24 434.975 85.8502 436.27 85.0283C437.564 84.2072 438.574 82.9952 439.322 81.4523L437.522 80.5797C436.905 81.8528 436.123 82.7528 435.198 83.3397C434.275 83.9258 433.145 84.24 431.766 84.24V86.24ZM438.422 82.016H468.502V80.016H438.422V82.016ZM467.521 80.8199C466.53 85.7788 464.425 90.2381 461.198 94.2094L462.75 95.4706C466.179 91.2499 468.426 86.4932 469.483 81.2121L467.521 80.8199ZM461.196 94.2113C458.055 98.0962 454.04 101.206 449.129 103.537L449.987 105.343C455.146 102.895 459.407 99.6051 462.752 95.4687L461.196 94.2113ZM449.136 103.533C444.331 105.77 439.015 106.896 433.174 106.896V108.896C439.279 108.896 444.886 107.718 449.98 105.347L449.136 103.533ZM433.174 106.896C426.149 106.896 419.913 105.434 414.443 102.533L413.505 104.299C419.299 107.372 425.863 108.896 433.174 108.896V106.896ZM414.448 102.536C409.069 99.6391 404.853 95.5071 401.787 90.1213L400.049 91.1107C403.298 96.8182 407.786 101.22 413.5 104.296L414.448 102.536ZM401.796 90.1371C398.817 84.6753 397.31 78.2747 397.31 70.904H395.31C395.31 78.552 396.875 85.2927 400.04 91.0949L401.796 90.1371ZM397.31 70.904C397.31 63.5329 398.817 57.1777 401.793 51.8045L400.043 50.8355C396.875 56.5556 395.31 63.2565 395.31 70.904H397.31ZM401.79 51.809C404.857 46.3383 409.073 42.1668 414.448 39.2725L413.5 37.5115C407.782 40.5906 403.293 45.0377 400.046 50.831L401.79 51.809ZM414.443 39.2755C419.913 36.3744 426.149 34.912 433.174 34.912V32.912C425.863 32.912 419.299 34.4362 413.505 37.5085L414.443 39.2755ZM433.174 34.912C440.2 34.912 446.39 36.3745 451.772 39.2725L452.72 37.5115C447.009 34.4361 440.484 32.912 433.174 32.912V34.912ZM451.788 39.281C457.248 42.0938 461.455 46.1374 464.43 51.4263L466.174 50.4457C463.005 44.8119 458.508 40.4929 452.704 37.503L451.788 39.281ZM464.436 51.4365C467.491 56.7207 469.038 62.9844 469.038 70.264H471.038C471.038 62.6956 469.427 56.074 466.168 50.4355L464.436 51.4365ZM442.238 63.48C442.238 60.86 441.383 58.742 439.548 57.3146L438.32 58.8933C439.557 59.8554 440.238 61.3213 440.238 63.48H442.238ZM439.574 57.3358C437.832 55.8836 435.674 55.184 433.174 55.184V57.184C435.282 57.184 436.964 57.7644 438.294 58.8722L439.574 57.3358ZM433.174 55.184C430.499 55.184 428.255 55.8315 426.553 57.237C424.849 58.6446 423.813 60.7109 423.357 63.3072L425.327 63.6528C425.725 61.3851 426.587 59.8034 427.827 58.779C429.069 57.7525 430.814 57.184 433.174 57.184V55.184ZM424.342 64.48H441.238V62.48H424.342V64.48ZM492.977 104.568L492.585 105.488L492.59 105.49L492.977 104.568ZM475.313 82.04V81.04H474.223L474.317 82.1259L475.313 82.04ZM502.577 82.04L503.564 81.882L503.43 81.04H502.577V82.04ZM505.265 86.776L504.688 87.593L504.699 87.6007L504.71 87.608L505.265 86.776ZM514.481 87.416L515.054 88.2352L515.081 88.2169L515.106 88.1969L514.481 87.416ZM503.985 79.224L504.181 78.2434L504.178 78.2428L503.985 79.224ZM491.057 75.896L490.719 76.8372L490.727 76.8399L491.057 75.896ZM482.225 69.752L481.464 70.4009L481.47 70.4073L481.475 70.4136L482.225 69.752ZM481.969 45.688L481.131 45.1423L481.128 45.1472L481.969 45.688ZM492.465 37.112L492.871 38.0258L492.878 38.0227L492.885 38.0195L492.465 37.112ZM532.017 41.08L531.358 41.8326L531.364 41.8376L532.017 41.08ZM542.001 59.768V60.768H543.156L542.991 59.625L542.001 59.768ZM516.785 59.768L515.808 59.9804L515.979 60.768H516.785V59.768ZM514.097 55.288L513.466 56.0641L513.481 56.0764L513.497 56.088L514.097 55.288ZM505.265 54.52L505.82 55.352L505.85 55.3318L505.879 55.3093L505.265 54.52ZM506.801 60.28L506.407 61.1991L506.426 61.2072L506.445 61.2145L506.801 60.28ZM515.377 62.456L515.57 61.4748L515.569 61.4746L515.377 62.456ZM528.561 65.912L528.225 66.8537L528.225 66.8537L528.561 65.912ZM537.905 72.568L537.138 73.2103L537.147 73.2205L537.905 72.568ZM538.161 96.888L538.971 97.475L538.971 97.475L538.161 96.888ZM527.409 104.952L527.023 104.029L527.017 104.032L527.409 104.952ZM511.153 106.896C504.434 106.896 498.511 105.804 493.364 103.646L492.59 105.49C498.024 107.769 504.218 108.896 511.153 108.896V106.896ZM493.369 103.648C488.298 101.487 484.303 98.511 481.349 94.7357L479.773 95.9683C482.963 100.044 487.246 103.212 492.585 105.488L493.369 103.648ZM481.349 94.7357C478.396 90.9626 476.719 86.7094 476.309 81.9541L474.317 82.1259C474.76 87.2692 476.582 91.8907 479.773 95.9683L481.349 94.7357ZM475.313 83.04H502.577V81.04H475.313V83.04ZM501.59 82.198C501.964 84.5357 502.971 86.3809 504.688 87.593L505.842 85.959C504.657 85.1231 503.873 83.811 503.564 81.882L501.59 82.198ZM504.71 87.608C506.447 88.7659 508.573 89.312 511.025 89.312V87.312C508.869 87.312 507.155 86.8341 505.82 85.9439L504.71 87.608ZM511.025 89.312C512.603 89.312 513.979 88.9882 515.054 88.2352L513.908 86.5968C513.277 87.0384 512.349 87.312 511.025 87.312V89.312ZM515.106 88.1969C516.153 87.3594 516.761 86.2783 516.761 84.984H514.761C514.761 85.567 514.516 86.1073 513.856 86.6351L515.106 88.1969ZM516.761 84.984C516.761 83.977 516.478 83.0611 515.878 82.2901C515.288 81.5309 514.444 80.98 513.429 80.5935L512.717 82.4625C513.494 82.7586 513.994 83.1251 514.3 83.5179C514.596 83.8989 514.761 84.3696 514.761 84.984H516.761ZM513.429 80.5935C511.552 79.8786 508.452 79.0975 504.181 78.2434L503.789 80.2046C508.052 81.0572 511.01 81.812 512.717 82.4625L513.429 80.5935ZM504.178 78.2428C499 77.2242 494.74 76.1257 491.387 74.9521L490.727 76.8399C494.2 78.0556 498.559 79.1758 503.792 80.2052L504.178 78.2428ZM491.395 74.9548C488.24 73.8224 485.434 71.8775 482.975 69.0904L481.475 70.4136C484.136 73.4292 487.218 75.5803 490.719 76.8372L491.395 74.9548ZM482.986 69.1031C480.712 66.4366 479.513 62.6842 479.513 57.72H477.513C477.513 62.9958 478.789 67.2647 481.464 70.4009L482.986 69.1031ZM479.513 57.72C479.513 53.466 480.614 49.6446 482.81 46.2288L481.128 45.1472C478.716 48.8994 477.513 53.0993 477.513 57.72H479.513ZM482.807 46.2337C485.076 42.7496 488.412 40.0076 492.871 38.0258L492.059 36.1982C487.302 38.3124 483.641 41.2877 481.131 45.1423L482.807 46.2337ZM492.885 38.0195C497.329 35.9622 502.766 34.912 509.233 34.912V32.912C502.558 32.912 496.817 33.9951 492.045 36.2045L492.885 38.0195ZM509.233 34.912C518.802 34.912 526.134 37.2609 531.358 41.8326L532.676 40.3274C526.978 35.3418 519.12 32.912 509.233 32.912V34.912ZM531.364 41.8376C536.717 46.4488 539.934 52.4542 541.011 59.911L542.991 59.625C541.849 51.7218 538.411 45.2685 532.67 40.3224L531.364 41.8376ZM542.001 58.768H516.785V60.768H542.001V58.768ZM517.762 59.5556C517.294 57.4019 516.288 55.681 514.697 54.488L513.497 56.088C514.637 56.943 515.423 58.2088 515.808 59.9804L517.762 59.5556ZM514.728 54.5119C513.135 53.2181 511.055 52.624 508.593 52.624V54.624C510.739 54.624 512.328 55.1392 513.466 56.0641L514.728 54.5119ZM508.593 52.624C507.024 52.624 505.662 52.9441 504.651 53.7306L505.879 55.3093C506.404 54.9012 507.26 54.624 508.593 54.624V52.624ZM504.71 53.6879C503.605 54.4246 503.113 55.5858 503.113 56.952H505.113C505.113 56.0995 505.389 55.6394 505.82 55.352L504.71 53.6879ZM503.113 56.952C503.113 57.9017 503.413 58.7645 504.007 59.5003C504.588 60.2197 505.414 60.7734 506.407 61.1991L507.195 59.3609C506.396 59.0186 505.878 58.6336 505.563 58.2437C505.261 57.8702 505.113 57.453 505.113 56.952H503.113ZM506.445 61.2145C508.321 61.9292 511.25 62.6675 515.185 63.4374L515.569 61.4746C511.653 60.7084 508.865 59.9961 507.157 59.3455L506.445 61.2145ZM515.184 63.4372C520.358 64.455 524.702 65.5955 528.225 66.8537L528.897 64.9703C525.252 63.6685 520.807 62.505 515.57 61.4748L515.184 63.4372ZM528.225 66.8537C531.627 68.069 534.598 70.1776 537.138 73.2102L538.672 71.9258C535.922 68.6437 532.663 66.315 528.897 64.9703L528.225 66.8537ZM537.147 73.2205C539.589 76.0563 540.873 80.0624 540.873 85.368H542.873C542.873 79.7509 541.511 75.2237 538.663 71.9155L537.147 73.2205ZM540.873 85.368C540.873 89.4266 539.701 93.0606 537.351 96.301L538.971 97.475C541.571 93.8887 542.873 89.8428 542.873 85.368H540.873ZM537.351 96.301C535.005 99.5376 531.582 102.123 527.023 104.029L527.795 105.875C532.622 103.856 536.368 101.065 538.971 97.475L537.351 96.301ZM527.017 104.032C522.559 105.931 517.279 106.896 511.153 106.896V108.896C517.485 108.896 523.043 107.899 527.801 105.872L527.017 104.032Z" fill="#434242" fill-opacity="0.32"/>
<defs>
<linearGradient id="paint0_linear_644_385" x1="-12" y1="87.5" x2="552.5" y2="78.5" gradientUnits="userSpaceOnUse">
<stop stop-color="#0019FC"/>
<stop offset="0.541667" stop-color="#8000FF"/>
<stop offset="1" stop-color="#CC00FF"/>
</linearGradient>
</defs>
</svg>
