<svg width="550" height="192" viewBox="0 0 550 192" fill="none" xmlns="http://www.w3.org/2000/svg">
<path d="M20.48 142.024C15.5307 142.024 11.5627 140.701 8.576 138.056C5.58933 135.411 4.096 132.083 4.096 128.072C4.096 123.976 5.58933 120.605 8.576 117.96C11.5627 115.229 15.5307 113.864 20.48 113.864C25.344 113.864 29.2693 115.229 32.256 117.96C35.2427 120.605 36.736 123.976 36.736 128.072C36.736 132.083 35.2427 135.411 32.256 138.056C29.2693 140.701 25.344 142.024 20.48 142.024ZM43.435 104.904C43.435 97.3093 44.715 90.7387 47.275 85.192C49.9203 79.56 53.5043 75.2933 58.027 72.392C62.5497 69.4053 67.627 67.912 73.259 67.912C77.9523 67.912 81.963 68.8933 85.291 70.856C88.7043 72.7333 91.307 75.336 93.099 78.664V46.28H121.515V141H93.099V131.144C91.307 134.472 88.7043 137.117 85.291 139.08C81.963 140.957 77.9523 141.896 73.259 141.896C67.627 141.896 62.5497 140.445 58.027 137.544C53.5043 134.557 49.9203 130.291 47.275 124.744C44.715 119.112 43.435 112.499 43.435 104.904ZM93.227 104.904C93.227 101.064 92.2457 98.0773 90.283 95.944C88.3203 93.8107 85.803 92.744 82.731 92.744C79.659 92.744 77.1417 93.8107 75.179 95.944C73.2163 98.0773 72.235 101.064 72.235 104.904C72.235 108.744 73.2163 111.731 75.179 113.864C77.1417 115.997 79.659 117.064 82.731 117.064C85.803 117.064 88.3203 115.997 90.283 113.864C92.2457 111.731 93.227 108.744 93.227 104.904ZM168.579 141.896C161.326 141.896 154.798 140.403 148.995 137.416C143.192 134.429 138.627 130.163 135.299 124.616C132.056 118.984 130.435 112.413 130.435 104.904C130.435 97.3947 132.056 90.8667 135.299 85.32C138.627 79.688 143.192 75.3787 148.995 72.392C154.798 69.4053 161.326 67.912 168.579 67.912C175.832 67.912 182.36 69.4053 188.163 72.392C193.966 75.3787 198.488 79.688 201.731 85.32C205.059 90.8667 206.723 97.3947 206.723 104.904C206.723 112.413 205.059 118.984 201.731 124.616C198.488 130.163 193.966 134.429 188.163 137.416C182.36 140.403 175.832 141.896 168.579 141.896ZM168.579 117.32C171.224 117.32 173.443 116.296 175.235 114.248C177.027 112.115 177.923 109 177.923 104.904C177.923 100.808 177.027 97.736 175.235 95.688C173.443 93.5547 171.224 92.488 168.579 92.488C165.934 92.488 163.715 93.5547 161.923 95.688C160.131 97.736 159.235 100.808 159.235 104.904C159.235 109 160.088 112.115 161.795 114.248C163.587 116.296 165.848 117.32 168.579 117.32ZM260.578 116.808V141H249.826C230.029 141 220.13 131.144 220.13 111.432V92.488H211.17V68.808H220.13V51.4H248.546V68.808H260.322V92.488H248.546V111.944C248.546 113.651 248.93 114.888 249.698 115.656C250.551 116.424 251.917 116.808 253.794 116.808H260.578ZM313 63.688C311.464 63.5173 310.397 63.432 309.8 63.432C307.667 63.432 306.045 63.8587 304.936 64.712C303.827 65.48 303.059 66.8453 302.632 68.808H313V92.488H302.376V141H273.96V92.488H266.28V68.808H273.96C274.131 59.4213 277.075 52.168 282.792 47.048C288.595 41.8427 296.701 39.24 307.112 39.24C308.307 39.24 310.269 39.3253 313 39.496V63.688ZM334.986 63.048C330.037 63.048 326.069 61.7253 323.082 59.08C320.095 56.4347 318.602 53.1067 318.602 49.096C318.602 45 320.095 41.6293 323.082 38.984C326.069 36.2533 330.037 34.888 334.986 34.888C339.85 34.888 343.775 36.2533 346.762 38.984C349.749 41.6293 351.242 45 351.242 49.096C351.242 53.1067 349.749 56.4347 346.762 59.08C343.775 61.7253 339.85 63.048 334.986 63.048ZM349.066 68.808V141H320.65V68.808H349.066ZM390.316 46.28V141H361.9V46.28H390.316ZM473.038 104.264C473.038 106.227 472.91 108.104 472.654 109.896H426.958C427.385 116.125 429.987 119.24 434.766 119.24C437.838 119.24 440.057 117.832 441.422 115.016H471.502C470.478 120.136 468.302 124.744 464.974 128.84C461.731 132.851 457.593 136.051 452.558 138.44C447.609 140.744 442.147 141.896 436.174 141.896C429.006 141.896 422.606 140.403 416.974 137.416C411.427 134.429 407.075 130.163 403.918 124.616C400.846 118.984 399.31 112.413 399.31 104.904C399.31 97.3947 400.846 90.8667 403.918 85.32C407.075 79.688 411.427 75.3787 416.974 72.392C422.606 69.4053 429.006 67.912 436.174 67.912C443.342 67.912 449.699 69.4053 455.246 72.392C460.878 75.2933 465.23 79.4747 468.302 84.936C471.459 90.3973 473.038 96.84 473.038 104.264ZM444.238 97.48C444.238 95.0907 443.47 93.2987 441.934 92.104C440.398 90.824 438.478 90.184 436.174 90.184C431.139 90.184 428.195 92.616 427.342 97.48H444.238ZM514.153 141.896C507.326 141.896 501.268 140.787 495.977 138.568C490.772 136.349 486.633 133.277 483.561 129.352C480.489 125.427 478.74 120.989 478.313 116.04H505.577C505.918 118.173 506.814 119.752 508.265 120.776C509.801 121.8 511.721 122.312 514.025 122.312C515.476 122.312 516.628 122.013 517.481 121.416C518.334 120.733 518.761 119.923 518.761 118.984C518.761 117.363 517.865 116.211 516.073 115.528C514.281 114.845 511.252 114.077 506.985 113.224C501.78 112.2 497.47 111.091 494.057 109.896C490.729 108.701 487.785 106.653 485.225 103.752C482.75 100.851 481.513 96.84 481.513 91.72C481.513 87.2827 482.665 83.272 484.969 79.688C487.358 76.0187 490.857 73.16 495.465 71.112C500.073 68.9787 505.662 67.912 512.233 67.912C521.961 67.912 529.556 70.3013 535.017 75.08C540.564 79.8587 543.892 86.088 545.001 93.768H519.785C519.358 91.8053 518.462 90.312 517.097 89.288C515.732 88.1787 513.897 87.624 511.593 87.624C510.142 87.624 509.033 87.9227 508.265 88.52C507.497 89.032 507.113 89.8427 507.113 90.952C507.113 92.4027 508.009 93.512 509.801 94.28C511.593 94.9627 514.452 95.688 518.377 96.456C523.582 97.48 527.977 98.632 531.561 99.912C535.145 101.192 538.26 103.411 540.905 106.568C543.55 109.64 544.873 113.907 544.873 119.368C544.873 123.635 543.636 127.475 541.161 130.888C538.686 134.301 535.102 136.989 530.409 138.952C525.801 140.915 520.382 141.896 514.153 141.896Z" fill="url(#paint0_linear_644_385)"/>
<path d="M8.576 138.056L7.91296 138.805L8.576 138.056ZM8.576 117.96L9.23904 118.709L9.24494 118.703L9.25077 118.698L8.576 117.96ZM32.256 117.96L31.5812 118.698L31.5871 118.703L31.593 118.709L32.256 117.96ZM32.256 138.056L31.593 137.307L31.593 137.307L32.256 138.056ZM20.48 141.024C15.7139 141.024 12.0017 139.754 9.23904 137.307L7.91296 138.805C11.1236 141.648 15.3475 143.024 20.48 143.024V141.024ZM9.23904 137.307C6.46795 134.853 5.096 131.798 5.096 128.072H3.096C3.096 132.367 4.71072 135.968 7.91296 138.805L9.23904 137.307ZM5.096 128.072C5.096 124.254 6.47309 121.158 9.23904 118.709L7.91296 117.211C4.70558 120.052 3.096 123.698 3.096 128.072H5.096ZM9.25077 118.698C12.0141 116.172 15.722 114.864 20.48 114.864V112.864C15.3394 112.864 11.1112 114.287 7.90123 117.222L9.25077 118.698ZM20.48 114.864C25.1475 114.864 28.8147 116.169 31.5812 118.698L32.9308 117.222C29.7239 114.29 25.5405 112.864 20.48 112.864V114.864ZM31.593 118.709C34.3589 121.158 35.736 124.254 35.736 128.072H37.736C37.736 123.698 36.1264 120.052 32.919 117.211L31.593 118.709ZM35.736 128.072C35.736 131.798 34.3641 134.853 31.593 137.307L32.919 138.805C36.1213 135.968 37.736 132.367 37.736 128.072H35.736ZM31.593 137.307C28.8271 139.757 25.1557 141.024 20.48 141.024V143.024C25.5323 143.024 29.7115 141.646 32.919 138.805L31.593 137.307ZM47.275 85.192L46.3699 84.7669L46.367 84.7729L47.275 85.192ZM58.027 72.392L58.567 73.2338L58.5781 73.2265L58.027 72.392ZM85.291 70.856L84.783 71.7174L84.7959 71.725L84.8091 71.7322L85.291 70.856ZM93.099 78.664L92.2185 79.1381L94.099 78.664H93.099ZM93.099 46.28V45.28H92.099V46.28H93.099ZM121.515 46.28H122.515V45.28H121.515V46.28ZM121.515 141V142H122.515V141H121.515ZM93.099 141H92.099V142H93.099V141ZM93.099 131.144H94.099L92.2185 130.67L93.099 131.144ZM85.291 139.08L85.7823 139.951L85.7895 139.947L85.291 139.08ZM58.027 137.544L57.4759 138.379L57.487 138.386L58.027 137.544ZM47.275 124.744L46.3646 125.158L46.3684 125.166L46.3724 125.174L47.275 124.744ZM90.283 95.944L91.0189 95.2669L91.0189 95.2669L90.283 95.944ZM75.179 95.944L74.4431 95.2669L74.4431 95.2669L75.179 95.944ZM44.435 104.904C44.435 97.4198 45.6965 90.9984 48.183 85.6111L46.367 84.7729C43.7335 90.4789 42.435 97.1989 42.435 104.904H44.435ZM48.1801 85.6171C50.7583 80.1281 54.2266 76.0181 58.567 73.2337L57.487 71.5503C52.7821 74.5686 49.0824 78.9919 46.3699 84.7669L48.1801 85.6171ZM58.5781 73.2265C62.9306 70.3521 67.8148 68.912 73.259 68.912V66.912C67.4392 66.912 62.1687 68.4585 57.4759 71.5575L58.5781 73.2265ZM73.259 68.912C77.812 68.912 81.6389 69.8631 84.783 71.7174L85.799 69.9946C82.2871 67.9235 78.0927 66.912 73.259 66.912V68.912ZM84.8091 71.7322C88.0591 73.5197 90.5208 75.9851 92.2185 79.1381L93.9795 78.1899C92.0932 74.6869 89.3496 71.947 85.7729 69.9798L84.8091 71.7322ZM94.099 78.664V46.28H92.099V78.664H94.099ZM93.099 47.28H121.515V45.28H93.099V47.28ZM120.515 46.28V141H122.515V46.28H120.515ZM121.515 140H93.099V142H121.515V140ZM94.099 141V131.144H92.099V141H94.099ZM92.2185 130.67C90.5186 133.827 88.0515 136.339 84.7925 138.213L85.7895 139.947C89.3572 137.895 92.0954 135.117 93.9795 131.618L92.2185 130.67ZM84.7997 138.209C81.6523 139.984 77.8192 140.896 73.259 140.896V142.896C78.0855 142.896 82.2737 141.93 85.7823 139.951L84.7997 138.209ZM73.259 140.896C67.8087 140.896 62.9205 139.495 58.567 136.702L57.487 138.386C62.1788 141.395 67.4453 142.896 73.259 142.896V140.896ZM58.5781 136.71C54.2266 133.836 50.7554 129.719 48.1776 124.314L46.3724 125.174C49.0853 130.863 52.782 135.279 57.4759 138.378L58.5781 136.71ZM48.1854 124.33C45.6963 118.854 44.435 112.388 44.435 104.904H42.435C42.435 112.61 43.7337 119.37 46.3646 125.158L48.1854 124.33ZM94.227 104.904C94.227 100.896 93.2004 97.6381 91.0189 95.2669L89.5471 96.6211C91.2909 98.5165 92.227 101.232 92.227 104.904H94.227ZM91.0189 95.2669C88.8545 92.9143 86.0639 91.744 82.731 91.744V93.744C85.5421 93.744 87.7861 94.707 89.5471 96.6211L91.0189 95.2669ZM82.731 91.744C79.3981 91.744 76.6075 92.9143 74.4431 95.2669L75.9149 96.6211C77.6759 94.707 79.9199 93.744 82.731 93.744V91.744ZM74.4431 95.2669C72.2616 97.6381 71.235 100.896 71.235 104.904H73.235C73.235 101.232 74.1711 98.5165 75.9149 96.6211L74.4431 95.2669ZM71.235 104.904C71.235 108.912 72.2616 112.17 74.4431 114.541L75.9149 113.187C74.1711 111.291 73.235 108.576 73.235 104.904H71.235ZM74.4431 114.541C76.6075 116.894 79.3981 118.064 82.731 118.064V116.064C79.9199 116.064 77.6759 115.101 75.9149 113.187L74.4431 114.541ZM82.731 118.064C86.0639 118.064 88.8545 116.894 91.0189 114.541L89.5471 113.187C87.7861 115.101 85.5421 116.064 82.731 116.064V118.064ZM91.0189 114.541C93.2004 112.17 94.227 108.912 94.227 104.904H92.227C92.227 108.576 91.2909 111.291 89.5471 113.187L91.0189 114.541ZM148.995 137.416L149.453 136.527L148.995 137.416ZM135.299 124.616L134.432 125.115L134.437 125.123L134.442 125.13L135.299 124.616ZM135.299 85.32L134.438 84.8113L134.436 84.8153L135.299 85.32ZM148.995 72.392L149.453 73.2811L149.453 73.2811L148.995 72.392ZM188.163 72.392L187.705 73.2811L187.705 73.2811L188.163 72.392ZM201.731 85.32L200.864 85.819L200.869 85.8268L200.874 85.8345L201.731 85.32ZM201.731 124.616L200.87 124.107L200.868 124.111L201.731 124.616ZM188.163 137.416L187.705 136.527L187.705 136.527L188.163 137.416ZM175.235 114.248L175.988 114.907L175.994 114.899L176.001 114.891L175.235 114.248ZM175.235 95.688L174.469 96.3312L174.476 96.3389L174.482 96.3465L175.235 95.688ZM161.923 95.688L162.676 96.3465L162.682 96.3389L162.689 96.3312L161.923 95.688ZM161.795 114.248L161.014 114.873L161.028 114.89L161.042 114.907L161.795 114.248ZM168.579 140.896C161.467 140.896 155.099 139.433 149.453 136.527L148.537 138.305C154.497 141.372 161.184 142.896 168.579 142.896V140.896ZM149.453 136.527C143.814 133.625 139.388 129.487 136.156 124.102L134.442 125.13C137.866 130.838 142.571 135.234 148.537 138.305L149.453 136.527ZM136.166 124.117C133.023 118.659 131.435 112.266 131.435 104.904H129.435C129.435 112.561 131.09 119.309 134.432 125.115L136.166 124.117ZM131.435 104.904C131.435 97.5418 133.023 91.1941 136.162 85.8247L134.436 84.8153C131.089 90.5393 129.435 97.2475 129.435 104.904H131.435ZM136.16 85.8287C139.392 80.3586 143.818 76.1813 149.453 73.2811L148.537 71.5029C142.567 74.576 137.862 79.0174 134.438 84.8113L136.16 85.8287ZM149.453 73.2811C155.099 70.3751 161.467 68.912 168.579 68.912V66.912C161.184 66.912 154.497 68.4355 148.537 71.5029L149.453 73.2811ZM168.579 68.912C175.691 68.912 182.059 70.3751 187.705 73.2811L188.621 71.5029C182.661 68.4355 175.974 66.912 168.579 66.912V68.912ZM187.705 73.2811C193.338 76.1802 197.718 80.3544 200.864 85.819L202.598 84.821C199.259 79.0216 194.594 74.5772 188.621 71.5029L187.705 73.2811ZM200.874 85.8345C204.094 91.2022 205.723 97.5463 205.723 104.904H207.723C207.723 97.243 206.024 90.5311 202.588 84.8055L200.874 85.8345ZM205.723 104.904C205.723 112.261 204.094 118.651 200.87 124.107L202.592 125.125C206.024 119.317 207.723 112.565 207.723 104.904H205.723ZM200.868 124.111C197.723 129.491 193.342 133.626 187.705 136.527L188.621 138.305C194.59 135.233 199.254 130.834 202.594 125.121L200.868 124.111ZM187.705 136.527C182.059 139.433 175.691 140.896 168.579 140.896V142.896C175.974 142.896 182.661 141.372 188.621 138.305L187.705 136.527ZM168.579 118.32C171.522 118.32 174.012 117.164 175.988 114.907L174.482 113.589C172.874 115.428 170.927 116.32 168.579 116.32V118.32ZM176.001 114.891C178.001 112.51 178.923 109.128 178.923 104.904H176.923C176.923 108.872 176.053 111.72 174.469 113.605L176.001 114.891ZM178.923 104.904C178.923 100.684 178.003 97.3326 175.988 95.0295L174.482 96.3465C176.051 98.1394 176.923 100.932 176.923 104.904H178.923ZM176.001 95.0448C174.03 92.6991 171.537 91.488 168.579 91.488V93.488C170.911 93.488 172.856 94.4103 174.469 96.3312L176.001 95.0448ZM168.579 91.488C165.621 91.488 163.128 92.6991 161.157 95.0448L162.689 96.3312C164.302 94.4103 166.247 93.488 168.579 93.488V91.488ZM161.17 95.0295C159.155 97.3326 158.235 100.684 158.235 104.904H160.235C160.235 100.932 161.107 98.1394 162.676 96.3465L161.17 95.0295ZM158.235 104.904C158.235 109.118 159.11 112.493 161.014 114.873L162.576 113.623C161.067 111.737 160.235 108.882 160.235 104.904H158.235ZM161.042 114.907C163.025 117.172 165.561 118.32 168.579 118.32V116.32C166.136 116.32 164.149 115.42 162.548 113.589L161.042 114.907ZM260.578 116.808H261.578V115.808H260.578V116.808ZM260.578 141V142H261.578V141H260.578ZM220.13 92.488H221.13V91.488H220.13V92.488ZM211.17 92.488H210.17V93.488H211.17V92.488ZM211.17 68.808V67.808H210.17V68.808H211.17ZM220.13 68.808V69.808H221.13V68.808H220.13ZM220.13 51.4V50.4H219.13V51.4H220.13ZM248.546 51.4H249.546V50.4H248.546V51.4ZM248.546 68.808H247.546V69.808H248.546V68.808ZM260.322 68.808H261.322V67.808H260.322V68.808ZM260.322 92.488V93.488H261.322V92.488H260.322ZM248.546 92.488V91.488H247.546V92.488H248.546ZM249.698 115.656L248.991 116.363L249.009 116.382L249.029 116.399L249.698 115.656ZM259.578 116.808V141H261.578V116.808H259.578ZM260.578 140H249.826V142H260.578V140ZM249.826 140C240.08 140 232.955 137.575 228.26 132.899C223.565 128.225 221.13 121.133 221.13 111.432H219.13C219.13 121.443 221.644 129.135 226.848 134.317C232.052 139.497 239.774 142 249.826 142V140ZM221.13 111.432V92.488H219.13V111.432H221.13ZM220.13 91.488H211.17V93.488H220.13V91.488ZM212.17 92.488V68.808H210.17V92.488H212.17ZM211.17 69.808H220.13V67.808H211.17V69.808ZM221.13 68.808V51.4H219.13V68.808H221.13ZM220.13 52.4H248.546V50.4H220.13V52.4ZM247.546 51.4V68.808H249.546V51.4H247.546ZM248.546 69.808H260.322V67.808H248.546V69.808ZM259.322 68.808V92.488H261.322V68.808H259.322ZM260.322 91.488H248.546V93.488H260.322V91.488ZM247.546 92.488V111.944H249.546V92.488H247.546ZM247.546 111.944C247.546 113.769 247.952 115.324 248.991 116.363L250.405 114.949C249.908 114.452 249.546 113.532 249.546 111.944H247.546ZM249.029 116.399C250.152 117.41 251.817 117.808 253.794 117.808V115.808C252.016 115.808 250.951 115.438 250.367 114.913L249.029 116.399ZM253.794 117.808H260.578V115.808H253.794V117.808ZM313 63.688L312.89 64.6819L314 64.8053V63.688H313ZM304.936 64.712L305.505 65.5342L305.526 65.5199L305.546 65.5046L304.936 64.712ZM302.632 68.808L301.655 68.5956L301.391 69.808H302.632V68.808ZM313 68.808H314V67.808H313V68.808ZM313 92.488V93.488H314V92.488H313ZM302.376 92.488V91.488H301.376V92.488H302.376ZM302.376 141V142H303.376V141H302.376ZM273.96 141H272.96V142H273.96V141ZM273.96 92.488H274.96V91.488H273.96V92.488ZM266.28 92.488H265.28V93.488H266.28V92.488ZM266.28 68.808V67.808H265.28V68.808H266.28ZM273.96 68.808V69.808H274.942L274.96 68.8262L273.96 68.808ZM282.792 47.048L283.459 47.7929L283.46 47.7924L282.792 47.048ZM313 39.496H314V38.5565L313.062 38.4979L313 39.496ZM313.11 62.6941C311.577 62.5238 310.46 62.432 309.8 62.432V64.432C310.335 64.432 311.351 64.5109 312.89 64.6819L313.11 62.6941ZM309.8 62.432C307.556 62.432 305.681 62.8773 304.326 63.9194L305.546 65.5046C306.41 64.84 307.778 64.432 309.8 64.432V62.432ZM304.367 63.8898C302.967 64.8588 302.11 66.504 301.655 68.5956L303.609 69.0204C304.008 67.1867 304.686 66.1012 305.505 65.5342L304.367 63.8898ZM302.632 69.808H313V67.808H302.632V69.808ZM312 68.808V92.488H314V68.808H312ZM313 91.488H302.376V93.488H313V91.488ZM301.376 92.488V141H303.376V92.488H301.376ZM302.376 140H273.96V142H302.376V140ZM274.96 141V92.488H272.96V141H274.96ZM273.96 91.488H266.28V93.488H273.96V91.488ZM267.28 92.488V68.808H265.28V92.488H267.28ZM266.28 69.808H273.96V67.808H266.28V69.808ZM274.96 68.8262C275.127 59.6507 277.994 52.6872 283.459 47.7929L282.125 46.303C276.155 51.6488 273.135 59.192 272.96 68.7898L274.96 68.8262ZM283.46 47.7924C289.025 42.8002 296.864 40.24 307.112 40.24V38.24C296.539 38.24 288.165 40.8851 282.124 46.3036L283.46 47.7924ZM307.112 40.24C308.273 40.24 310.208 40.3235 312.938 40.494L313.062 38.4979C310.33 38.3272 308.341 38.24 307.112 38.24V40.24ZM312 39.496V63.688H314V39.496H312ZM323.082 59.08L323.745 58.3314L323.745 58.3314L323.082 59.08ZM323.082 38.984L323.745 39.7326L323.751 39.7273L323.757 39.722L323.082 38.984ZM346.762 38.984L346.087 39.722L346.093 39.7273L346.099 39.7326L346.762 38.984ZM346.762 59.08L346.099 58.3314L346.099 58.3314L346.762 59.08ZM349.066 68.808H350.066V67.808H349.066V68.808ZM349.066 141V142H350.066V141H349.066ZM320.65 141H319.65V142H320.65V141ZM320.65 68.808V67.808H319.65V68.808H320.65ZM334.986 62.048C330.22 62.048 326.508 60.7784 323.745 58.3314L322.419 59.8286C325.63 62.6723 329.853 64.048 334.986 64.048V62.048ZM323.745 58.3314C320.974 55.877 319.602 52.8221 319.602 49.096H317.602C317.602 53.3912 319.217 56.9923 322.419 59.8286L323.745 58.3314ZM319.602 49.096C319.602 45.2775 320.979 42.1824 323.745 39.7326L322.419 38.2354C319.212 41.0762 317.602 44.7224 317.602 49.096H319.602ZM323.757 39.722C326.52 37.1956 330.228 35.888 334.986 35.888V33.888C329.845 33.888 325.617 35.3111 322.407 38.246L323.757 39.722ZM334.986 35.888C339.653 35.888 343.321 37.1926 346.087 39.722L347.437 38.246C344.23 35.314 340.047 33.888 334.986 33.888V35.888ZM346.099 39.7326C348.865 42.1824 350.242 45.2775 350.242 49.096H352.242C352.242 44.7224 350.632 41.0762 347.425 38.2354L346.099 39.7326ZM350.242 49.096C350.242 52.8221 348.87 55.877 346.099 58.3314L347.425 59.8286C350.627 56.9923 352.242 53.3912 352.242 49.096H350.242ZM346.099 58.3314C343.333 60.7811 339.662 62.048 334.986 62.048V64.048C340.038 64.048 344.218 62.6695 347.425 59.8286L346.099 58.3314ZM348.066 68.808V141H350.066V68.808H348.066ZM349.066 140H320.65V142H349.066V140ZM321.65 141V68.808H319.65V141H321.65ZM320.65 69.808H349.066V67.808H320.65V69.808ZM390.316 46.28H391.316V45.28H390.316V46.28ZM390.316 141V142H391.316V141H390.316ZM361.9 141H360.9V142H361.9V141ZM361.9 46.28V45.28H360.9V46.28H361.9ZM389.316 46.28V141H391.316V46.28H389.316ZM390.316 140H361.9V142H390.316V140ZM362.9 141V46.28H360.9V141H362.9ZM361.9 47.28H390.316V45.28H361.9V47.28ZM472.654 109.896V110.896H473.521L473.644 110.037L472.654 109.896ZM426.958 109.896V108.896H425.887L425.96 109.964L426.958 109.896ZM441.422 115.016V114.016H440.796L440.522 114.58L441.422 115.016ZM471.502 115.016L472.483 115.212L472.722 114.016H471.502V115.016ZM464.974 128.84L464.198 128.209L464.196 128.211L464.974 128.84ZM452.558 138.44L452.98 139.347L452.987 139.343L452.558 138.44ZM416.974 137.416L416.5 138.296L416.505 138.299L416.974 137.416ZM403.918 124.616L403.04 125.095L403.044 125.103L403.049 125.111L403.918 124.616ZM403.918 85.32L403.046 84.831L403.043 84.8355L403.918 85.32ZM416.974 72.392L416.505 71.5085L416.5 71.5115L416.974 72.392ZM455.246 72.392L454.772 73.2725L454.78 73.2768L454.788 73.281L455.246 72.392ZM468.302 84.936L467.43 85.4263L467.436 85.4365L468.302 84.936ZM444.238 97.48V98.48H445.238V97.48H444.238ZM441.934 92.104L441.294 92.8722L441.307 92.883L441.32 92.8933L441.934 92.104ZM427.342 97.48L426.357 97.3072L426.151 98.48H427.342V97.48ZM472.038 104.264C472.038 106.183 471.913 108.013 471.664 109.755L473.644 110.037C473.907 108.195 474.038 106.27 474.038 104.264H472.038ZM472.654 108.896H426.958V110.896H472.654V108.896ZM425.96 109.964C426.181 113.183 426.971 115.76 428.463 117.545C429.988 119.371 432.139 120.24 434.766 120.24V118.24C432.615 118.24 431.074 117.552 429.997 116.263C428.886 114.933 428.162 112.838 427.956 109.828L425.96 109.964ZM434.766 120.24C436.459 120.24 437.975 119.85 439.27 119.028C440.564 118.207 441.574 116.995 442.322 115.452L440.522 114.58C439.905 115.853 439.123 116.753 438.198 117.34C437.275 117.926 436.145 118.24 434.766 118.24V120.24ZM441.422 116.016H471.502V114.016H441.422V116.016ZM470.521 114.82C469.53 119.779 467.425 124.238 464.198 128.209L465.75 129.471C469.179 125.25 471.426 120.493 472.483 115.212L470.521 114.82ZM464.196 128.211C461.055 132.096 457.04 135.206 452.129 137.537L452.987 139.343C458.146 136.895 462.407 133.605 465.752 129.469L464.196 128.211ZM452.136 137.533C447.331 139.77 442.015 140.896 436.174 140.896V142.896C442.279 142.896 447.886 141.718 452.98 139.347L452.136 137.533ZM436.174 140.896C429.149 140.896 422.913 139.434 417.443 136.533L416.505 138.299C422.299 141.372 428.863 142.896 436.174 142.896V140.896ZM417.448 136.536C412.069 133.639 407.853 129.507 404.787 124.121L403.049 125.111C406.298 130.818 410.786 135.22 416.5 138.296L417.448 136.536ZM404.796 124.137C401.817 118.675 400.31 112.275 400.31 104.904H398.31C398.31 112.552 399.875 119.293 403.04 125.095L404.796 124.137ZM400.31 104.904C400.31 97.5329 401.817 91.1777 404.793 85.8045L403.043 84.8355C399.875 90.5556 398.31 97.2565 398.31 104.904H400.31ZM404.79 85.809C407.857 80.3383 412.073 76.1668 417.448 73.2725L416.5 71.5115C410.782 74.5906 406.293 79.0377 403.046 84.831L404.79 85.809ZM417.443 73.2755C422.913 70.3744 429.149 68.912 436.174 68.912V66.912C428.863 66.912 422.299 68.4362 416.505 71.5085L417.443 73.2755ZM436.174 68.912C443.2 68.912 449.39 70.3745 454.772 73.2725L455.72 71.5115C450.009 68.4361 443.484 66.912 436.174 66.912V68.912ZM454.788 73.281C460.248 76.0938 464.455 80.1374 467.43 85.4263L469.174 84.4457C466.005 78.8119 461.508 74.4929 455.704 71.503L454.788 73.281ZM467.436 85.4365C470.491 90.7207 472.038 96.9844 472.038 104.264H474.038C474.038 96.6956 472.427 90.074 469.168 84.4355L467.436 85.4365ZM445.238 97.48C445.238 94.86 444.383 92.742 442.548 91.3146L441.32 92.8933C442.557 93.8554 443.238 95.3213 443.238 97.48H445.238ZM442.574 91.3358C440.832 89.8836 438.674 89.184 436.174 89.184V91.184C438.282 91.184 439.964 91.7644 441.294 92.8722L442.574 91.3358ZM436.174 89.184C433.499 89.184 431.255 89.8315 429.553 91.237C427.849 92.6446 426.813 94.7109 426.357 97.3072L428.327 97.6528C428.725 95.3851 429.587 93.8034 430.827 92.779C432.069 91.7525 433.814 91.184 436.174 91.184V89.184ZM427.342 98.48H444.238V96.48H427.342V98.48ZM495.977 138.568L495.585 139.488L495.59 139.49L495.977 138.568ZM478.313 116.04V115.04H477.223L477.317 116.126L478.313 116.04ZM505.577 116.04L506.564 115.882L506.43 115.04H505.577V116.04ZM508.265 120.776L507.688 121.593L507.699 121.601L507.71 121.608L508.265 120.776ZM517.481 121.416L518.054 122.235L518.081 122.217L518.106 122.197L517.481 121.416ZM506.985 113.224L507.181 112.243L507.178 112.243L506.985 113.224ZM494.057 109.896L493.719 110.837L493.727 110.84L494.057 109.896ZM485.225 103.752L484.464 104.401L484.47 104.407L484.475 104.414L485.225 103.752ZM484.969 79.688L484.131 79.1423L484.128 79.1472L484.969 79.688ZM495.465 71.112L495.871 72.0258L495.878 72.0227L495.885 72.0195L495.465 71.112ZM535.017 75.08L534.358 75.8326L534.364 75.8376L535.017 75.08ZM545.001 93.768V94.768H546.156L545.991 93.625L545.001 93.768ZM519.785 93.768L518.808 93.9804L518.979 94.768H519.785V93.768ZM517.097 89.288L516.466 90.0641L516.481 90.0764L516.497 90.088L517.097 89.288ZM508.265 88.52L508.82 89.352L508.85 89.3318L508.879 89.3093L508.265 88.52ZM509.801 94.28L509.407 95.1991L509.426 95.2072L509.445 95.2145L509.801 94.28ZM518.377 96.456L518.57 95.4748L518.569 95.4746L518.377 96.456ZM531.561 99.912L531.225 100.854L531.225 100.854L531.561 99.912ZM540.905 106.568L540.138 107.21L540.147 107.221L540.905 106.568ZM541.161 130.888L541.971 131.475L541.971 131.475L541.161 130.888ZM530.409 138.952L530.023 138.029L530.017 138.032L530.409 138.952ZM514.153 140.896C507.434 140.896 501.511 139.804 496.364 137.646L495.59 139.49C501.024 141.769 507.218 142.896 514.153 142.896V140.896ZM496.369 137.648C491.298 135.487 487.303 132.511 484.349 128.736L482.773 129.968C485.963 134.044 490.246 137.212 495.585 139.488L496.369 137.648ZM484.349 128.736C481.396 124.963 479.719 120.709 479.309 115.954L477.317 116.126C477.76 121.269 479.582 125.891 482.773 129.968L484.349 128.736ZM478.313 117.04H505.577V115.04H478.313V117.04ZM504.59 116.198C504.964 118.536 505.971 120.381 507.688 121.593L508.842 119.959C507.657 119.123 506.873 117.811 506.564 115.882L504.59 116.198ZM507.71 121.608C509.447 122.766 511.573 123.312 514.025 123.312V121.312C511.869 121.312 510.155 120.834 508.82 119.944L507.71 121.608ZM514.025 123.312C515.603 123.312 516.979 122.988 518.054 122.235L516.908 120.597C516.277 121.038 515.349 121.312 514.025 121.312V123.312ZM518.106 122.197C519.153 121.359 519.761 120.278 519.761 118.984H517.761C517.761 119.567 517.516 120.107 516.856 120.635L518.106 122.197ZM519.761 118.984C519.761 117.977 519.478 117.061 518.878 116.29C518.288 115.531 517.444 114.98 516.429 114.594L515.717 116.462C516.494 116.759 516.994 117.125 517.3 117.518C517.596 117.899 517.761 118.37 517.761 118.984H519.761ZM516.429 114.594C514.552 113.879 511.452 113.097 507.181 112.243L506.789 114.205C511.052 115.057 514.01 115.812 515.717 116.462L516.429 114.594ZM507.178 112.243C502 111.224 497.74 110.126 494.387 108.952L493.727 110.84C497.2 112.056 501.559 113.176 506.792 114.205L507.178 112.243ZM494.395 108.955C491.24 107.822 488.434 105.877 485.975 103.09L484.475 104.414C487.136 107.429 490.218 109.58 493.719 110.837L494.395 108.955ZM485.986 103.103C483.712 100.437 482.513 96.6842 482.513 91.72H480.513C480.513 96.9958 481.789 101.265 484.464 104.401L485.986 103.103ZM482.513 91.72C482.513 87.466 483.614 83.6446 485.81 80.2288L484.128 79.1472C481.716 82.8994 480.513 87.0993 480.513 91.72H482.513ZM485.807 80.2337C488.076 76.7496 491.412 74.0076 495.871 72.0258L495.059 70.1982C490.302 72.3124 486.641 75.2877 484.131 79.1423L485.807 80.2337ZM495.885 72.0195C500.329 69.9622 505.766 68.912 512.233 68.912V66.912C505.558 66.912 499.817 67.9951 495.045 70.2045L495.885 72.0195ZM512.233 68.912C521.802 68.912 529.134 71.2609 534.358 75.8326L535.676 74.3274C529.978 69.3418 522.12 66.912 512.233 66.912V68.912ZM534.364 75.8376C539.717 80.4488 542.934 86.4542 544.011 93.911L545.991 93.625C544.849 85.7218 541.411 79.2685 535.67 74.3224L534.364 75.8376ZM545.001 92.768H519.785V94.768H545.001V92.768ZM520.762 93.5556C520.294 91.4019 519.288 89.681 517.697 88.488L516.497 90.088C517.637 90.943 518.423 92.2088 518.808 93.9804L520.762 93.5556ZM517.728 88.5119C516.135 87.2181 514.055 86.624 511.593 86.624V88.624C513.739 88.624 515.328 89.1392 516.466 90.0641L517.728 88.5119ZM511.593 86.624C510.024 86.624 508.662 86.9441 507.651 87.7306L508.879 89.3093C509.404 88.9012 510.26 88.624 511.593 88.624V86.624ZM507.71 87.6879C506.605 88.4246 506.113 89.5858 506.113 90.952H508.113C508.113 90.0995 508.389 89.6394 508.82 89.352L507.71 87.6879ZM506.113 90.952C506.113 91.9017 506.413 92.7645 507.007 93.5003C507.588 94.2197 508.414 94.7734 509.407 95.1991L510.195 93.3609C509.396 93.0186 508.878 92.6336 508.563 92.2437C508.261 91.8702 508.113 91.453 508.113 90.952H506.113ZM509.445 95.2145C511.321 95.9292 514.25 96.6675 518.185 97.4374L518.569 95.4746C514.653 94.7084 511.865 93.9961 510.157 93.3455L509.445 95.2145ZM518.184 97.4372C523.358 98.455 527.702 99.5955 531.225 100.854L531.897 98.9703C528.252 97.6685 523.807 96.505 518.57 95.4748L518.184 97.4372ZM531.225 100.854C534.627 102.069 537.598 104.178 540.138 107.21L541.672 105.926C538.922 102.644 535.663 100.315 531.897 98.9703L531.225 100.854ZM540.147 107.221C542.589 110.056 543.873 114.062 543.873 119.368H545.873C545.873 113.751 544.511 109.224 541.663 105.915L540.147 107.221ZM543.873 119.368C543.873 123.427 542.701 127.061 540.351 130.301L541.971 131.475C544.571 127.889 545.873 123.843 545.873 119.368H543.873ZM540.351 130.301C538.005 133.538 534.582 136.123 530.023 138.029L530.795 139.875C535.622 137.856 539.368 135.065 541.971 131.475L540.351 130.301ZM530.017 138.032C525.559 139.931 520.279 140.896 514.153 140.896V142.896C520.485 142.896 526.043 141.899 530.801 139.872L530.017 138.032Z" fill="#434242" fill-opacity="0.32"/>
<defs>
<linearGradient id="paint0_linear_644_385" x1="-9" y1="121.5" x2="555.5" y2="112.5" gradientUnits="userSpaceOnUse">
<stop stop-color="#0019FC"/>
<stop offset="0.541667" stop-color="#8000FF"/>
<stop offset="1" stop-color="#CC00FF"/>
</linearGradient>
</defs>
</svg>
